<?xml version="1.0" standalone="no"?>
<!DOCTYPE svg PUBLIC "-//W3C//DTD SVG 1.1//EN" "http://www.w3.org/Graphics/SVG/1.1/DTD/svg11.dtd" >
<svg xmlns="http://www.w3.org/2000/svg">
<metadata>
Created by FontForge 20120731 at Fri May 12 14:36:32 2017
 By admin
</metadata>
<defs>
<font id="iconfont" horiz-adv-x="1024" >
  <font-face 
    font-family="iconfont"
    font-weight="500"
    font-stretch="normal"
    units-per-em="1024"
    panose-1="2 0 6 3 0 0 0 0 0 0"
    ascent="896"
    descent="-128"
    x-height="792"
    bbox="-53 -214 1237 896"
    underline-thickness="0"
    underline-position="0"
    unicode-range="U+0078-E775"
  />
<missing-glyph 
 />
    <glyph glyph-name=".notdef" 
 />
    <glyph glyph-name=".notdef" 
 />
    <glyph glyph-name=".null" horiz-adv-x="0" 
 />
    <glyph glyph-name="nonmarkingreturn" horiz-adv-x="341" 
 />
    <glyph glyph-name="x" unicode="x" horiz-adv-x="1001" 
d="M281 543q-27 -1 -53 -1h-83q-18 0 -36.5 -6t-32.5 -18.5t-23 -32t-9 -45.5v-76h912v41q0 16 -0.5 30t-0.5 18q0 13 -5 29t-17 29.5t-31.5 22.5t-49.5 9h-133v-97h-438v97zM955 310v-52q0 -23 0.5 -52t0.5 -58t-10.5 -47.5t-26 -30t-33 -16t-31.5 -4.5q-14 -1 -29.5 -0.5
t-29.5 0.5h-32l-45 128h-439l-44 -128h-29h-34q-20 0 -45 1q-25 0 -41 9.5t-25.5 23t-13.5 29.5t-4 30v167h911zM163 247q-12 0 -21 -8.5t-9 -21.5t9 -21.5t21 -8.5q13 0 22 8.5t9 21.5t-9 21.5t-22 8.5zM316 123q-8 -26 -14 -48q-5 -19 -10.5 -37t-7.5 -25t-3 -15t1 -14.5
t9.5 -10.5t21.5 -4h37h67h81h80h64h36q23 0 34 12t2 38q-5 13 -9.5 30.5t-9.5 34.5q-5 19 -11 39h-368zM336 498v228q0 11 2.5 23t10 21.5t20.5 15.5t34 6h188q31 0 51.5 -14.5t20.5 -52.5v-227h-327z" />
    <glyph glyph-name="yejianzhuanhuan" unicode="&#xe601;" 
d="M80 651l24 -20q10 -8 6 -20l-10 -30q-4 -13 6 -21t22 -1l26 17q11 7 21 -1l25 -19q11 -8 22 -0.5t8 20.5l-8 31q-3 12 7 19l26 19q11 7 7 20t-17 14l-31 2q-13 0 -17 13l-9 30q-4 12 -17.5 12.5t-18.5 -11.5l-11 -29q-5 -12 -18 -12h-31q-13 0 -17.5 -12.5t5.5 -20.5z
M241 367l-46 1q-19 0 -26 -18.5t8 -30.5l36 -30q14 -12 8 -30l-14 -43q-7 -19 8.5 -31t32.5 -1l39 24q16 11 31 -1l37 -27q16 -12 32 -1t11 30l-11 44q-5 19 10 30l38 27q16 11 10.5 29.5t-24.5 20.5l-47 2q-18 2 -24 20l-14 44q-6 18 -25.5 19t-26.5 -17l-17 -43
q-7 -18 -26 -18zM485 796q-54 0 -110 -13q132 -33 217.5 -140.5t85.5 -246.5q0 -108 -53.5 -200.5t-145.5 -146t-201 -53.5q-129 0 -234 77q63 -122 181 -195.5t260 -73.5q101 0 192.5 39t158 105.5t106 158.5t39.5 193t-39.5 192.5t-106 158t-158 106t-192.5 39.5z" />
    <glyph glyph-name="fenxiang" unicode="&#xe62e;" 
d="M797 207q-47 0 -85.5 -25t-57.5 -65l-268 53q-3 22 -12 43l179 193q31 -14 64 -14q66 0 113 47t47 112.5t-47 112.5t-112.5 47t-112.5 -47t-47 -113q0 -49 28 -89l-167 -181q-41 29 -91 29q-66 0 -113 -46.5t-47 -112.5t47 -112.5t113 -46.5q47 0 86 25.5t58 66.5
l267 -52q6 -61 51.5 -102t106.5 -41q66 0 112.5 46.5t46.5 112.5t-46.5 112.5t-112.5 46.5zM617.5 624q30.5 0 51.5 -21t21 -51.5t-21 -51.5t-51.5 -21t-51.5 21t-21 51.5t21 51.5t51.5 21zM228 79q-30 0 -51.5 21t-21.5 51t21.5 51.5t51.5 21.5t51 -21.5t21 -51.5t-21 -51
t-51 -21zM797 -25q-30 0 -51.5 21.5t-21.5 51.5t21.5 51t51.5 21t51.5 -21t21.5 -51t-21.5 -51.5t-51.5 -21.5z" />
    <glyph glyph-name="shu" unicode="&#xe61c;" 
d="M852 -200h-603v829h264v-344l133 101l131 -101v344h150v-754q0 -31 -22 -53t-53 -22v0zM646 436l-95 -76v306h188v-306zM136 704v-38q0 -15 11 -26t27 -11h38v-829h-38q-31 0 -53 22t-22 53v829q0 31 22 53.5t53 22.5h678q43 0 65 -38h-743q-16 0 -27 -11t-11 -27v0z" />
    <glyph glyph-name="weixin" unicode="&#xe603;" 
d="M669 495q14 0 30 -2q-20 95 -110.5 157.5t-206.5 62.5q-130 0 -222 -77.5t-92 -189.5q0 -124 126 -212l-31 -94l109 55q80 -16 110 -16q14 0 30 1q-10 33 -10 66q0 103 77.5 176t189.5 73zM500 580q18 0 28.5 -11t10.5 -28.5t-10.5 -28.5t-28.5 -11t-32.5 11.5
t-14.5 28.5t14.5 28t32.5 11zM280 501q-18 0 -32.5 11.5t-14.5 28.5t14.5 28t32.5 11t29 -11t11 -28.5t-11 -28.5t-29 -11zM956 250q0 93 -80 160.5t-187 67.5q-112 0 -189.5 -67t-77.5 -161.5t77.5 -161t189.5 -66.5q31 0 94 16l86 -47l-23 78q110 83 110 181zM602 289
q-11 0 -21 10t-10 21.5t10 21.5t21 10q17 0 28.5 -9.5t11.5 -22t-11.5 -22t-28.5 -9.5zM775 289q-12 0 -21.5 10t-9.5 21.5t9.5 21.5t21.5 10q17 0 28 -9.5t11 -22t-11 -22t-28 -9.5z" />
    <glyph glyph-name="qq" unicode="&#xe62d;" 
d="M200 344l-2 6l-1 6l-1 4v5v5v5l1 6l2 7l2 6l3 8l4 8l5 7v6l1 5l1 7l2 7l2 9l2 4l2 3l2 4l3 3v5v7v7l2 10l1 11l3 14l4 14l3 8l3 9l3 8l4 8l4 9l4 9l6 9l6 10l3 5l3 4l7 10l7 10l8 10l8 10l10 10l9 10l12 10l7 7l9 7l10 6l10 6l9 5l11 5l11 5l12 4l11 4l12 4l12 2l13 3
l13 2l13 2l13 1l14 1h13h13h14l14 -1l13 -2l14 -2l13 -3l13 -3l13 -3l14 -4l13 -4l12 -5l13 -6l12 -6l12 -6l11 -8l10 -6l4 -4l5 -3l9 -8l8 -7l7 -8l8 -8l6 -9l7 -8l5 -9l5 -8l6 -10l4 -8l8 -17l4 -9l3 -9l3 -9l2 -8l2 -8l2 -8l5 -16l2 -13l2 -13l1 -10l3 -16v-3l2 -3l5 -8
l3 -6l3 -5l4 -7l3 -7l2 -8l3 -8l1 -9l1 -4l1 -5v-5l-1 -4v-6l-1 -5l-3 -11l-2 -5l-2 -6v-2l1 -1l2 -5l12 -17l10 -14l4 -9l6 -9l6 -11l6 -11l6 -13l7 -15l4 -8l3 -9l3 -9l3 -8l3 -9l2 -8l3 -16l2 -16l2 -14v-8v-7v-6l-1 -7l-2 -12l-2 -11l-3 -10l-1 -5l-3 -4l-2 -4l-2 -4
l-3 -3l-2 -3l-3 -3l-3 -2l-3 -2l-3 -1l-2 -1h-2h-2l-2 1l-5 2l-2 1l-2 2l-3 2l-2 3l-4 4l-5 6l-3 6l-4 6l-4 6l-5 10l-5 11l-1 1h-1l-2 -2l-2 -3l-2 -4l-4 -10l-6 -16l-7 -18l-6 -9l-6 -10l-7 -10l-7 -11l-4 -5l-5 -5l-10 -10l1 -1l1 -2l5 -3l23 -10l9 -6l9 -5l10 -7l8 -7
l4 -3l3 -3l3 -5l2 -4l1 -4l2 -4l1 -4l1 -5l-1 -3v-3l-1 -3l-2 -3v-2l-2 -3l-4 -5l-3 -5l-3 -3l-3 -2l-6 -5l-7 -4l-7 -4l-8 -3l-9 -3l-5 -2l-4 -1l-10 -3l-11 -2l-10 -2l-12 -2h-12l-12 -2h-12h-13h-13l-14 1l-12 1l-14 2l-14 1l-14 2l-14 4l-13 3l-14 3l-14 5l-13 4l-7 3
l-7 2l-4 2h-4h-5h-6l-13 1l-7 1l-8 1l-6 -5l-7 -5l-10 -5l-11 -6l-7 -3l-7 -3l-16 -6l-8 -2l-9 -3l-13 -2l-7 -1h-8l-9 -1l-10 -1h-9h-10h-22l-22 1l-23 2l-11 2l-11 1l-10 2l-11 2l-10 3l-10 2l-9 4l-8 3l-8 4l-7 4l-6 5l-3 2l-3 3l-2 3l-2 3l-2 3l-1 3l-2 6l-1 3l-1 4v3
l1 4v3l1 4v2v6v4l2 4l1 5l3 5l2 2l1 3l5 5l3 2l3 2l3 3l5 1l3 2l5 3l5 1l6 2l6 1l6 1l6 1l8 1h2v0l1 1v1l-1 2l-4 2l-10 8l-7 6l-7 6l-8 8l-8 10l-10 10l-3 6l-5 6l-4 7l-3 8l-5 7l-3 9l-4 8l-4 9l-2 9l-3 11l-1 1h-1v1h-1l-1 -1l-1 -1l-1 -2l-1 -2l-1 -2l-1 -3l-5 -8l-2 -5
l-4 -4l-4 -5l-4 -6l-5 -5l-5 -5l-5 -5l-6 -3l-6 -4l-6 -2l-7 -2l-6 -1h-1h-1l-1 1l-2 2l-2 2l-2 6l-2 4l-2 4l-1 6l-1 5l-2 11l-1 7v7v15l1 17l1 8l2 9l1 10l3 8l3 10l3 10l4 10l3 10l6 10l4 10l6 10l7 11l7 10l7 11l7 7l7 9l9 8l3 4l5 5l7 6l7 6l11 10l9 6z" />
    <glyph glyph-name="huodong3" unicode="&#xe60c;" 
d="M669 687v0q18 0 27 -8q7 -7 7 -20q0 -29 -28 -55q-20 -19 -48.5 -31t-51.5 -12q-4 0 -7.5 0.5t-5 1l-1.5 0.5v0q-6 10 6 41.5t36 53.5q31 29 66 29zM669 746q-58 0 -106 -44q-42 -40 -57.5 -95.5t14.5 -86.5q19 -18 55 -18q34 0 73 16.5t67 41.5q40 38 46.5 85.5
t-24.5 76.5q-26 24 -68 24v0zM367 687q35 0 66 -29q24 -22 36 -53.5t8 -41.5q-5 -2 -15 -2q-23 0 -52 12t-48 31q-29 26 -29 55q0 13 7 20q9 8 27 8zM367 746q-41 0 -67 -24q-32 -29 -25.5 -76.5t47.5 -85.5q27 -25 66 -41.5t74 -16.5t55 18q29 31 14 86.5t-58 95.5
q-47 44 -106 44v0zM866 270v203q0 24 -17 41t-41 17h-261v-261h319zM547 212v-261h261q24 0 41 17t17 41v203h-319zM489 270v261h-261q-24 0 -41 -17t-17 -41v-203h319zM170 212v-203q0 -24 17 -41t41 -17h261v261h-319z" />
    <glyph glyph-name="unie614" unicode="&#xe63a;" 
d="M-53 853v0v0zM789 351v163q0 55 -21.5 105t-58 86.5t-86 58t-104.5 21.5h-10q-113 0 -192.5 -79.5t-79.5 -191.5v-163h-95v-559h745v559h-98v0zM599 -106h-169l41 181q-41 24 -41 73q0 34 25 59t60 25t59.5 -25t24.5 -59q0 -49 -42 -73zM653 351h-280v163q0 55 39.5 95
t96.5 40h10q27 0 52 -10.5t43 -29t28.5 -43t10.5 -52.5v-163z" />
    <glyph glyph-name="huodong" unicode="&#xe61f;" 
d="M1024 402q0 101 -38.5 191.5t-107.5 159.5v0v0q-69 68 -158.5 105.5t-189.5 37.5t-189.5 -37.5t-157.5 -105.5v0v0q-69 -69 -107.5 -159.5t-38.5 -191.5t38.5 -191.5t107.5 -158.5v0v0q68 -68 157.5 -105.5t189.5 -37.5t189.5 37.5t158.5 105.5v0v0q69 68 107.5 158.5
t38.5 191.5zM950 384q-6 -141 -95 -249q-81 111 -86 249h181zM769 421q5 137 86 248q89 -108 95 -248h-181zM830 697q-92 -123 -98 -276h-183v401q81 -4 153.5 -36.5t127.5 -88.5zM512 822v-401h-184q-5 153 -97 276q55 56 127.5 88.5t153.5 36.5zM111 421q6 140 95 248
q80 -111 86 -248h-181zM292 384q-6 -138 -86 -249q-89 108 -95 249h181zM231 108q92 122 97 276h184v-401q-81 3 -153.5 36t-127.5 89zM549 -17v401h183q6 -154 98 -276q-55 -56 -127.5 -89t-153.5 -36z" />
    <glyph glyph-name="shouji" unicode="&#xe737;" 
d="M692 716h-335q-31 0 -53.5 -20.5t-22.5 -48.5v-694q0 -28 22.5 -48.5t53.5 -20.5h335q31 0 53.5 20.5t22.5 48.5v694q0 28 -22.5 48.5t-53.5 20.5zM479 661h91q6 0 10.5 -4.5t4.5 -10t-4.5 -9.5t-10.5 -4h-91q-6 0 -10.5 4t-4.5 9.5t4.5 10t10.5 4.5zM524.5 -88
q-18.5 0 -32 12t-13.5 29.5t13.5 29.5t32 12t32 -12t13.5 -29.5t-13.5 -29.5t-32 -12zM738 23h-427v554h427v-554z" />
    <glyph glyph-name="jiaruwomen" unicode="&#xe610;" 
d="M884 277h-78v76q0 24 -17.5 41.5t-42.5 17.5t-42.5 -17.5t-17.5 -41.5v-76h-79q-25 0 -42.5 -17.5t-17.5 -42t17.5 -41.5t42.5 -17h79v-77q0 -24 17.5 -41.5t42.5 -17.5t42.5 17.5t17.5 41.5v77h78q25 0 43 17t18 41.5t-18 42t-43 17.5zM414 394q65 0 111.5 45t46.5 109
t-46.5 109t-111.5 45t-111 -45t-46 -109t46 -109t111 -45zM596 92q-3 0 -8.5 -0.5t-20.5 1t-28 4.5t-29.5 12t-27 21.5t-17 34.5t-4.5 50q6 73 83 95q-63 40 -133 40q-84 0 -156 -57t-114 -155.5t-42 -214.5q0 -11 1 -23h623v23q0 16 -1 33q-16 1 -30.5 4t-33 12t-31.5 23
t-22 39t-9 58z" />
    <glyph glyph-name="msnui-find-bold" unicode="&#xe642;" 
d="M941 75l-184 184q58 92 58 201q0 103 -50.5 190t-138 137.5t-190.5 50.5t-190 -50.5t-137.5 -137.5t-50.5 -190t50.5 -190.5t137.5 -138t190 -50.5q109 0 201 58l184 -184q25 -25 60 -25t60 25t25 60t-25 60v0zM436 233q-94 0 -160.5 66.5t-66.5 160.5t66.5 160.5
t160.5 66.5t160.5 -66.5t66.5 -160.5t-66.5 -160.5t-160.5 -66.5z" />
    <glyph glyph-name="2" unicode="&#xe624;" 
d="M638 608h-311v117h63q0 25 17.5 41.5t43.5 16.5h63q26 0 44 -17q17 -16 17 -41h63v-117v0zM483 660q16 0 27.5 11t11.5 26q0 16 -11.5 26t-27.5 10q-17 0 -28 -10t-11 -26q0 -15 11 -26t28 -11v0zM732 199q45 0 85 -17q39 -16 69 -44q31 -29 48 -66t17 -80t-17 -81
q-17 -37 -48 -65q-29 -28 -69 -44t-85 -16q-46 0 -85 16q-40 16 -70 44q-30 29 -47 65q-17 38 -17 81q0 42 17 80q17 37 47 66q30 28 70 44q40 17 85 17v0zM868 10q5 6 11 16q5 9 -3 17q-1 0 -2.5 1.5l-3.5 3.5l-4 4q-7 8 -9 9q-10 6 -19 2q-8 -5 -18 -14q-22 -20 -45 -42
q-19 -17 -42 -39q-8 -7 -16 -8t-13 5q-2 2 -10 9q-7 8 -13 14q-3 3 -7.5 8t-5.5 7l-10 10q-6 5 -13 6q-8 2 -16 -5q-2 -2 -5 -4l-8 -8q-3 -4 -7 -7q-3 -2 -5 -4v0q-15 -15 4 -35q9 -10 15.5 -16.5l20.5 -20.5q9 -10 22 -23q10 -10 19 -17q8 -7 22 -7q13 0 21 8q14 12 32 30
q10 10 37 35q22 20 38 35q20 19 33 30v0v0zM448 21v-14q-1 -4 -1 -14q0 -42 13 -80t37 -70h-291q-19 0 -41 10q-22 11 -41.5 28t-32.5 38t-13 45v581q0 20 10 41q11 22 26.5 39t36.5 30q21 11 44 11h70v-117h435v117h61q23 0 46 -9q22 -10 40 -25q18 -17 29 -39
q12 -22 12 -48v-332q-35 22 -75 34q-39 12 -84 12h-7q18 7 30 22q11 15 11 34q0 24 -18 41q-19 17 -44 17h-435q-26 0 -44.5 -17t-18.5 -41q0 -25 18.5 -42.5t44.5 -17.5h416q-60 -9 -108 -39q-49 -31 -80 -78h-228q-26 0 -44 -17t-18 -41t18 -41.5t44 -17.5h183h-1zM448 21
z" />
    <glyph glyph-name="question" unicode="&#xe63c;" 
d="M512 736q-185 0 -316.5 -131.5t-131.5 -316.5t131.5 -316.5t316.5 -131.5t316.5 131.5t131.5 316.5t-131.5 316.5t-316.5 131.5zM512 -32q-20 0 -34 14t-14 34t14 34t34 14t34 -14t14 -34t-14 -34t-34 -14zM601 295q-19 -19 -28.5 -29t-19 -26t-9.5 -28v-54
q0 -13 -9.5 -22.5t-22.5 -9.5t-22.5 9.5t-9.5 22.5v54q0 25 13 50t25.5 39.5t36.5 38.5q18 17 26.5 26.5t17.5 23.5t9 24q0 40 -28 68.5t-68 28.5t-68 -27.5t-28 -67.5q0 -13 -9.5 -22.5t-22.5 -9.5t-22.5 9.5t-9.5 22.5q0 66 47 112.5t113 46.5t113 -47t47 -114
q0 -22 -12 -45.5t-24 -37t-35 -36.5z" />
    <glyph glyph-name="fenxiang1" unicode="&#xe775;" 
d="M592 611l290 -290l-290 -290v165q-6 1 -16.5 1.5t-43.5 -0.5t-66 -6.5t-79 -19.5t-86.5 -36t-85 -59.5t-78.5 -86.5q1 6 2.5 16t9 41t17.5 61.5t29 71.5t42 76.5t58.5 71.5t77 61t98.5 41t121 16v166z" />
    <glyph glyph-name="shezhi" unicode="&#xe63d;" 
d="M906 384v0l-72 16q-8 25 -21 51l39 65q12 20 13.5 40.5t-13.5 38.5l-40 40q-15 15 -39 15t-42 -13l-63 -40q-25 13 -51 22l-16 72q-4 22 -20.5 39t-38.5 17h-56q-22 0 -36.5 -17t-19.5 -39l-18 -72q-28 -9 -54 -23l-65 41q-18 13 -41 13q-25 0 -40 -15l-39 -40
q-15 -18 -14 -38.5t14 -40.5l40 -68q-12 -26 -19 -48l-72 -16q-22 -4 -39 -20.5t-17 -38.5v-56q0 -21 17 -36t39 -20l73 -18q7 -22 18 -45l-40 -68q-13 -19 -14 -39.5t14 -39.5l39 -39q15 -16 40 -16q23 0 41 13l65 41q27 -14 55 -23l17 -71q6 -23 20.5 -39.5t35.5 -16.5h56
q22 0 38.5 17t20.5 38l16 73q26 8 51 21l63 -40q18 -13 42 -13t39 16l40 39q15 19 13.5 39.5t-13.5 39.5l-39 65q12 24 20 48l72 18q23 5 39.5 20t16.5 36v56q0 22 -17 38.5t-38 20.5zM512 121q-74 0 -126.5 52.5t-52.5 126t52.5 126t126.5 52.5t126.5 -52.5t52.5 -126
t-52.5 -126t-126.5 -52.5z" />
    <glyph glyph-name="zixun" unicode="&#xe65a;" 
d="M814 -58l-105 104q61 65 61 154q0 92 -65 157t-157.5 65t-157 -65t-64.5 -157.5t64.5 -157t157.5 -64.5q16 0 54 5q3 1 8 2.5t17 4t22 2.5q14 0 14 13.5t-14 13.5q-12 0 -26 -2t-21.5 -4l-7.5 -2q-33 -6 -46 -6q-81 0 -138 57.5t-57 137.5t57 137.5t137.5 57.5
t137.5 -57.5t57 -137.5q0 -87 -60 -143q-6 -5 -6 -10.5t6 -11.5l115 -115q6 -5 11.5 -5t10.5 5q0 17 -5 22zM375 -25h-93q-21 0 -35.5 14.5t-14.5 34.5v584q0 21 15 35.5t37 14.5h379q20 0 34.5 -14.5t14.5 -35.5v-189q0 -13 14 -13t14 13v189q0 33 -22 55t-55 22h-379
q-32 0 -55.5 -23t-23.5 -54v-584q0 -32 22 -54t55 -22h93q14 0 14 13.5t-14 13.5zM411 628q-14 0 -14 -14t14 -14h123q14 0 14 14t-14 14h-123zM411 296q-33 -49 -33 -99q0 -14 13.5 -14t13.5 14q0 18 4.5 34.5t9 25t13.5 22.5q4 5 3 11t-5 9q-4 4 -10.5 2.5t-8.5 -5.5z" />
    <glyph glyph-name="yijian" unicode="&#xe655;" 
d="M783 -145h-692v752h447v-40h-407v-672h612v477h40v-517zM414 53l-174 174l518 518l175 -174l-519 -518v0zM297 227l117 -118l462 462l-118 118l-461 -462v0zM414 54h-173v173h51v-40h-11v-94h93v9h40v-48zM667 605l128 -128l-28 -28l-128 127l28 29v0zM667 605z" />
    <glyph glyph-name="xinlang" unicode="&#xe618;" 
d="M675 683q-22 -10 -27 -30t12 -37q8 -8 20 -10t45 -2q89 0 135 -53q29 -33 36 -55t7 -81q0 -54 2 -64.5t14 -17.5q28 -16 46.5 3.5t25.5 72.5q8 69 -28 140t-98 108q-41 24 -99.5 32t-90.5 -6v0v0zM365 566q-105 -37 -212 -152q-130 -138 -122 -260.5t151 -191.5
q149 -73 325.5 -52t286.5 125q53 51 68.5 107.5t-10.5 102.5t-87 68q-16 5 -22 10t-4 10q20 47 9 79q-14 45 -65.5 54.5t-130.5 -17.5l-43 -14l4 42q6 71 -36 92q-18 10 -50 9t-62 -12v0v0zM540 322q71 -19 111.5 -59t40.5 -91q0 -56 -47 -103.5t-129 -74.5
q-43 -14 -111 -16.5t-107 7.5q-76 22 -116.5 62t-40.5 94q0 57 54 107q26 25 50 39t62 27q120 40 233 8v0zM342 261q-98 -46 -98 -132q0 -75 73 -113q28 -16 73.5 -15t77.5 18q42 22 66.5 58.5t24.5 76.5q0 32 -24.5 65t-58.5 47q-27 11 -66.5 9.5t-67.5 -14.5v0v0zM388 142
q7 -7 7 -24q0 -24 -29 -38t-45 2q-9 9 -7.5 27t12 28.5t32 12t30.5 -7.5v0zM686 554q-22 -22 -10 -43t46 -21q30 0 44 -15.5t14 -49.5q0 -22 2.5 -30.5t11.5 -13.5q25 -18 43 -1t18 59q0 52 -33 87t-86 39q-23 2 -32.5 0t-17.5 -11v0v0zM686 554z" />
    <glyph glyph-name="baike" unicode="&#xe658;" 
d="M741 731h-427q-28 0 -47 -19t-19 -46.5t19 -46.5t47 -19h427q-4 2 -10 6.5t-16 21.5t-10 37q0 19 9 35.5t18 23.5zM334 672q15 0 25 -19.5t10 -46.5v-6h372q-4 2 -10 6.5t-16 21.5t-10 37q0 19 9 35.5t18 23.5l9 7h-427q-28 0 -47 -19t-19 -47q0 -23 14.5 -40.5
t35.5 -23.5v5q0 27 10.5 46.5t25.5 19.5zM849 731h9v82h-13h-89h-514q-29 0 -51 -20t-25 -50v0v-722h1q2 -26 21 -45t46 -22v-1h64v648q-21 6 -35.5 23.5t-14.5 40.5q0 28 19 47t47 19h427q-4 -2 -10 -7.5t-16 -22.5t-10 -36q0 -20 9 -36.5t18 -22.5l9 -6h-372v-647h32v0
h457v647h-9q-27 0 -46 19t-19 46.5t19 46.5t46 19z" />
    <glyph glyph-name="shoucang" unicode="&#xe600;" 
d="M508 827q-17 0 -27 -11q-10 -10 -15 -24l-103 -236l-275 -25q-10 -2 -17 -9q-9 -7 -10.5 -19t5.5 -25q8 -11 19 -21l10 -9l22 -19q22 -19 31 -26l36 -30q30 -26 94 -80l-30 -124q-6 -22 -12 -47q-7 -27 -11 -42q-4 -20 -8 -32l-4 -17q-2 -8 1.5 -15.5t11.5 -13.5
q7 -5 17 -6q2 -1 4 -1q7 0 14 4q5 2 17 9q11 5 31 17q10 6 40 23q27 16 44 25q46 26 115 66l232 -134l13 -5q8 -3 13 -3q13 0 24 6t8 23q-1 3 -4 17l-6 33q-5 22 -9 44q-4 20 -10 47q-15 72 -26 127l184 164q12 14 19 22q8 9 8 22t-7 19q-8 6 -25 11l-276 25l-99 237
q-2 3 -5 9q-4 6 -8 10q-4 6 -11 10t-15 4z" />
    <glyph glyph-name="icon" unicode="&#xe60b;" 
d="M855 513q6 -54 -4 -105q-1 -4 -2 -9.5t-2 -7.5v-1v-2l-2 -7q-8 -29 -23 -58q0 -1 -1 -2.5t-1.5 -3t-0.5 -2.5t-2 -4l-1 -1l-1 -1v-1v-1.5t-0.5 0t-0.5 0v-1.5v-1h-0.5h-1t0 -1t0 -1.5t-1 0l-0.5 0.5q-12 -22 -26 -40q-5 -7 -15 -17q-12 -14 -14 -18q-2 0 -3.5 -1t-3 -3
t-2.5 -3q-2 -2 -5 -4.5t-4 -3.5q-2 -1 -13 -11q-1 0 -2 -1.5t-2 -1.5q-1 -1 -2 -1t-2 -1l-0.5 -1l-0.5 -1h-1h-1l-3 -3l-1 -1t-1.5 -1h-1.5h-1q-3 -4 -4 -4l-6 -4h-1l-2 -2q-3 0 -4 -1l-0.5 -1.5t-1 -1.5t-2.5 -0.5t-2 -1.5q-1 -36 0 -112.5t0 -115.5q-1 -13 -2 -15
q-2 -6 -9.5 -7.5t-13.5 2.5l-4 3q-2 1 -6.5 5t-6.5 6q-1 0 -3 1.5t-2.5 2l-2 2l-2 2t-1.5 0.5t-2 1l-0.5 1t-1 1t-1.5 0.5t-1.5 1t-1.5 2.5t-2 2h-2h-1q-3 4 -4 4t-3 3l-1.5 1.5t-2 1l-1.5 0.5q-1 0 -1 1t-1 2h-1.5t-1.5 1q-1 0 -1 1t-1 1q0 1 -2 1.5t-2.5 1t-1 1.5t-1.5 1
l-1 2q-4 3 -5 3t-2.5 2.5t-2.5 2.5h-1h-2q-4 5 -9 9q-1 0 -2.5 1.5l-2.5 2.5q-1 0 -3.5 2t-3.5 3q-1 0 -4 2.5t-6 4.5q-1 1 -7 6t-11 9q-1 0 -2.5 1.5l-2.5 2.5h-1t-2 1l-1 2l-10 -7q-59 -46 -66 -52q-2 -2 -5.5 -4t-4.5 -4q-1 0 -1.5 -1t-1.5 -1.5t-2.5 -1.5t-2.5 -2l-1 -1
q-3 -4 -5 -4q-1 0 -2.5 -2t-2.5 -3h-1.5t-2.5 -1l-0.5 -1t-0.5 -1.5t-1 0l-1 0.5l-5 -5t-2.5 -2t-2.5 -2q-1 0 -2 -1q-3 -4 -4 -4t-2.5 -1t-3 -3t-2.5 -2q-9 -7 -15 -6q-3 0 -8 3l-1.5 0.5t-1.5 1v1.5v1h-0.5h-0.5v1v2q-1 0 -1 16v190v31q-1 2 -5 5q-1 0 -1.5 1t-1 1.5
t-1.5 0t-1 0v1v0.5q-2 1 -5.5 3t-5.5 3q-1 0 -1.5 1t-1.5 1q-1 1 -4 2.5t-4 2.5l-2 2l-1 1l-1 0.5t-1.5 0.5t-1.5 1t-1 1.5t-1 1l-1 0.5q-1 0 -2.5 2t-2.5 3q-1 0 -2.5 0.5l-1.5 0.5l-0.5 1l-0.5 1q-2 2 -5 4t-5 4l-2.5 2.5l-2.5 2.5q-10 8 -22 22q-5 6 -7 8h-0.5t-0.5 1
l-5 6q-3 4 -11 15l-1 1l-1 1q-1 1 -2.5 4l-2.5 5q-1 0 -2 1t-1 1.5t-0.5 1t-0.5 1t-1 1.5l-1.5 1.5t0 1.5t0 1t-2.5 4l-1 1l-1 1q-1 1 -1.5 3t-1.5 3q0 1 -1 1.5t-1.5 1t0 1.5l0.5 1q-1 1 -4 6q-19 37 -29 80q0 1 -1.5 6.5t-1.5 7.5v3v2q-1 2 -2 8v1q1 1 0 1q-1 1 -2 18
q-3 28 0 60v2q-1 5 0 6l2 16q3 19 10 43l1 1q0 5 1 5q2 2 5 13l-0.5 1t0 1t1.5 1t1 2t0.5 3t0.5 4l0.5 0.5l0.5 0.5q1 2 3 8l1 1l1 1q1 1 2 4.5t2 5.5q1 1 1.5 3t1.5 3q0 1 1 1.5t1 1v1.5v1q1 1 3 4q0 1 1.5 3.5t3.5 5.5l1 1l1 1v1v1q4 3 4 5q0 1 1 2.5l1 1.5l2 3.5t3 5.5
l1 1t2 1q0 1 0.5 1.5t0.5 1t1 1.5l1.5 1.5t0.5 1t1 1.5q0 1 2 2.5t2 2.5q1 0 1 1.5t1 1.5q0 1 1 1t1.5 0.5t0.5 2t0.5 2t3 2.5t3.5 4q7 8 8 9q13 14 16 16q2 1 3.5 3t4 4t4.5 3q9 8 19 16q1 1 1.5 2t1.5 1q1 1 4 2.5t4 2.5q1 0 2 1t1 1.5t1 0.5t1.5 0.5t1 1.5t1 1h1.5h1v0.5
v0.5q1 1 2 1t2 1l1 1t2 1q8 5 11 6q1 1 3 1.5t3 1.5l1 1l1 1q2 1 5 2t5 2q1 0 1.5 1t1 1h1.5h1q1 2 4 3h1h1v0.5v0.5q23 10 55 17q20 5 30 7q10 1 32 2q1 0 2 0.5l1 0.5q9 1 32.5 -1t29.5 -2q33 -5 63 -16q1 -1 2 -0.5l1 0.5q0 -1 2 -2q3 0 4 -1q2 -2 7 -4q5 -1 8 -2v-0.5
t1 -0.5h0.5h1t3 -2t4 -2t4.5 -1q0 -1 1 -2l1 -1h1h1.5t0 -0.5t0 -0.5h1.5h1v-0.5v-0.5h1h1v-1v-1q1 0 3.5 -1t3.5 -1v-0.5t1 -0.5l6 -4q1 0 2.5 -1t2.5 -1v-1.5t1 -0.5t3 -1l1 -1l2 -1t3 -2v-0.5t1 -0.5t2.5 -1.5l2.5 -2.5q1 0 3 -1q0 -1 1 -1l1.5 -1.5t3.5 -2.5t11 -8
q1 -1 4 -3.5t5 -4.5q10 -8 28 -28q0 -1 1 -1q3 -1 3 -3q0 -1 2.5 -3.5l3.5 -3.5l3 -3t3 -4l0.5 -1.5l0.5 -1.5q1 -1 2 -1t1 -0.5v-1.5v-1q2 -2 7 -10h0.5t1 -1t2 -2.5t1.5 -2.5v-1v0l2 -2t1.5 -2l1 -2t0.5 -2h0.5t0.5 -1q1 -3 1.5 -3.5t1.5 -1l1 -0.5q1 -1 1.5 -3t1.5 -3
l0.5 -0.5l0.5 -0.5q0 -2 1 -4q0 -1 1 -1.5t1.5 -1t0 -1.5t0 -1h1h0.5v-1v-1.5t0.5 0t0.5 0v-1.5v-1q2 -1 6 -11q23 -49 29 -103zM824 429q8 66 -8 125q-1 5 -3 12q-1 1 -1 3q-2 4 -2 5l-0.5 0.5l-0.5 0.5q-1 2 -1 4v3t-1.5 2l-1.5 1q0 1 -1 4l-1 3q-1 0 -0.5 1.5t0 1.5
t-1.5 1t-1 1.5v1.5v2l-1 1l-1 1q-1 3 -2 4q0 1 -0.5 2.5t-1.5 3t-1 2.5q-3 5 -4 6v1v1.5t-1 1t-1.5 1t-2.5 5t-4 6.5q0 1 -1 2q-2 3 -2 4t-0.5 1h-1.5v2t-0.5 2t-2 2t-2 1.5t-0.5 1.5t-0.5 1.5t-1.5 1t-1.5 1t-0.5 1.5v1q-1 1 -2 1.5t-1 1.5q-1 2 -5 7t-6 7q-16 19 -35 35
q-9 8 -13 11q-1 1 -1.5 1t-1 0.5l-1.5 1.5t-1.5 1t-1 0.5t-1 0.5t-1.5 1l-1.5 1.5l-1 1t-1 0.5t-1.5 1q-2 1 -2.5 1t-0.5 1t-1 1h-1.5t-1.5 1q-1 0 -1 1t-1 1q0 1 -1.5 1t-1.5 1v0.5v0.5h-1.5h-1.5l-1 1l-1 1q-6 4 -6.5 4h-1.5h-1l-1 1l-1 1q-1 1 -3.5 2t-3.5 1v0.5v0.5h-1
h-1l-1 1l-1.5 1.5t-2 0.5h-1.5l-1 1t-2 1q-1 1 -3 1.5t-3 1.5q-34 15 -73 21q-35 5 -66 3l-1 -0.5t-2 -0.5q-23 -2 -34 -4q-14 -2 -28 -6q-1 0 -1 -1v0q-1 0 -4 -0.5t-4 -0.5v-0.5t-1 -0.5q-1 -1 -2 -1.5t-2 -0.5q-2 0 -2 -1h-1.5h-1.5q-1 0 -4.5 -1.5t-3.5 -2.5q-2 0 -3 -1
l-3 -1h-1h-1h-1l-1 -1t-1 -2q-1 0 -2.5 -0.5l-1.5 -0.5q-1 0 -3.5 -1t-4.5 -1l-1 -1.5l-1 -1.5q-1 0 -2 -0.5t-2 -0.5q-50 -26 -85 -64q-13 -14 -21 -25l-1.5 -1.5l-1 -1t-1 -2l-0.5 -1.5q0 -1 -1 -1t-1 -1q-1 0 -1 -1.5t-1 -1.5q0 -1 -2 -2.5t-3 -2.5v-1v0q0 -1 -0.5 -1
t-0.5 -1l-0.5 -1.5l-0.5 -1.5q0 -1 -1 -1.5t-2 -1.5q-2 -3 -2 -3.5v-1.5v-1l-1 -1l-1.5 -1.5t-0.5 -2t-1 -1.5q0 -1 -1 -1.5t-1 -1.5q-6 -10 -13 -26q-33 -79 -23 -157v-3.5v-3.5t0.5 -1.5t0.5 -1v-2v-1.5q7 -36 13 -54q0 -1 2 -6t2 -7q0 -1 1 -1t1 -1t1 -3.5t1 -3.5
q4 -6 4 -9q0 -1 1 -2.5t1 -2.5q1 -4 5 -8q1 0 0.5 -1.5l-0.5 -1.5h0.5h1t0 -1t0 -1h1h0.5v-1v-1.5t0.5 -0.5h0.5v-1v-1l1 -0.5l1 -0.5l2 -4q0 -1 0.5 -1h0.5q1 -2 2 -4.5t2 -3.5l1.5 -1.5l1.5 -1.5v-1v-1l3 -3q11 -17 25 -33q8 -10 13 -14q3 -3 5.5 -5t6 -5t4.5 -4t2 -2.5
t2 -1.5t4 -2q1 -1 3.5 -4t3.5 -4h1h1.5t1 -1t1.5 -1l4 -3q1 0 2 -1.5t2 -1.5v0h1q1 0 1 -0.5v-1.5q8 -5 9 -6h1h1q1 0 2 -1.5t2 -1.5q2 -2 4 -2q1 0 2.5 -1t2 -1t1 -0.5l0.5 -0.5q11 -7 12 -10t1 -26v-192q1 -1 2 -0.5t2 0.5q1 2 2 3t3 1.5t3 1.5t3.5 4t3.5 4l1 -0.5t1.5 0
t0.5 1.5t1 1l2 2q0 1 1 0.5t2 -0.5q1 1 3 3.5t4 4l2 1.5q2 0 4 2.5t3 2.5l3 3q1 0 2 1.5t2 1.5q1 1 4 3t5 3q0 1 1.5 2t1.5 2q1 1 3 1.5t2.5 1t1.5 2t2 1.5t1 0.5v1.5q6 3 9 7h1h2q0 1 1 2.5t2 1.5t2.5 1t3 3t2.5 2l1.5 1.5t1.5 2.5q1 0 2 -0.5t1 0t0.5 1.5l0.5 1
q1 1 2.5 1.5t2.5 1t3 2.5l3.5 3.5t2.5 1.5t3 2.5t3 2.5t1 0.5v0.5q12 7 25 -4q4 -3 4.5 -3t4.5 -3l1.5 -1.5l1.5 -1.5q2 -2 5 -4t4 -3t3.5 -3t3.5 -3q14 -11 15 -12h1h2q0 -1 2.5 -3t4.5 -4t2.5 -2t3.5 -4l1.5 0.5t1.5 -0.5l1.5 -1.5l1.5 -1.5q7 -5 13 -10q0 -1 1.5 -2
t2 -1.5t2.5 -1.5l2 -1q1 -1 1.5 -2l0.5 -1h1h1q1 0 2 -1.5t2 -2t2 -2t1.5 -2t2.5 -1t3 -1.5l1 -1.5t2 -1.5q4 -4 9 -7l1 -1q2 -2 4 -1v192q0 24 1 27q2 4 5 6l1 1q2 2 3 2q2 0 7 3l1.5 1.5l1.5 1.5q1 0 3 1t3 1v0.5v1t1 0t1.5 0t1 1.5t1 1t1.5 0.5t1.5 0.5t1 1t1 1.5t1.5 1
t1.5 0.5t0.5 1q2 1 3 1t4 4h1h1q1 0 1.5 2t1 2h1.5h1q1 0 1.5 1.5t1 2t1.5 0t1 0.5q1 0 2 2t1.5 2.5t2 0.5t1.5 1q3 1 6 5.5t4 5.5q1 0 2.5 0.5l1.5 0.5q2 1 4.5 4.5t3.5 4.5l4 4l4.5 4.5t4 5t3.5 4.5q0 1 1 1t1 1q1 0 1 1.5t0.5 2t1.5 0.5h1q0 1 0.5 2.5t0.5 2t1 0.5h2v2.5
t0.5 1.5t1.5 0.5l1 0.5q1 1 1 2.5v1.5h1.5h0.5v1v1.5t1 1t1 1t0.5 1.5t1 1.5l1.5 1.5l1 1l3 6t3 5q32 55 40 114v0zM716 537q1 -8 -1 -15q-1 -5 -4 -9q-5 -7 -10 -11q-9 -7 -37.5 -27.5t-41.5 -30.5q4 -12 11.5 -35.5t11.5 -35.5q1 0 0.5 -1t0 -1t3.5 -11l0.5 -0.5t0.5 -1.5
q0 -6 2 -7q3 -3 2 -16q-1 -8 -6 -16q-11 -17 -31 -17q-12 -1 -30 12q-9 7 -34 25.5t-36 26.5q-4 -1 -8 -4l-2 -2t-3 -2.5t-3 -2t-3 -2.5l-1 -1t-1.5 -1t-1.5 -0.5t-1.5 -1t-1.5 -2t-1.5 -1.5t-2 -0.5l-1.5 -0.5l-2.5 -2.5l-2.5 -2.5t-3 -2t-3 -2q-1 0 -1.5 -1t-1 -1.5
t-2 -0.5t-2 -0.5t-1 -2t-1.5 -2t-2 -0.5h-2q0 -1 -2 -3t-3 -2.5l-3 -1.5t-3 -2l-1 -1l-1.5 -1.5t-1.5 -0.5t-2 -0.5t-1.5 -2t-1 -2t-2 -0.5t-2 -0.5t-1 -1.5t-1 -1.5t-2 -0.5t-1.5 -1q-1 0 -2 -1l-1 -1h-1h-1.5t-2 -0.5t-3.5 -1t-4 -0.5q-7 -1 -16 2v0q-1 1 -2 1h-1h-1l-1 1
l-3 3l-3 2q-1 0 -3 3l-1.5 1.5l-2.5 2.5l-0.5 1.5l-0.5 1.5q0 1 -1 2l-1 1v1v1q-1 5 -2 5q-3 11 2 22q0 1 -0.5 2t0 1t3.5 11l1 0.5l1 0.5q0 1 1 5q1 2 1 3q1 2 2 6.5t2 6.5q1 5 8 24.5t9 29.5q0 1 -2 3l-1.5 1.5l-1.5 1.5t-3 2t-3 1q0 1 -0.5 2l-0.5 1q-4 2 -5 2
q-1 1 -1.5 2t-1 1t-2 0.5t-2 1t-1 2t-1 1.5t-2 0.5t-2.5 0.5q0 1 -2 2.5t-3 2.5h-1h-1l-0.5 1t-0.5 2h-2t-2 1q-1 0 -2.5 2t-2.5 3l-1 0.5t-1.5 0.5t-1.5 1.5t-2 2.5q-1 0 -2 0.5t-1.5 0.5t-1.5 1l-1 1q-20 15 -24 19l-1 0.5l-1 0.5v1v2q-1 0 -1.5 0.5t-1 1.5l-1 2t-0.5 2
l-1 1l-1 1q-1 1 -0.5 2t0.5 2q-3 8 -2 17v0q2 1 2 2q0 3 1 5l0.5 1.5l0.5 1.5h0.5h0.5v1.5v1.5q1 1 3 3.5t3 3.5q4 4 15 9h1.5h1.5q1 1 26 1h78q1 1 5 10l-0.5 1t0 1t3.5 12h1t1 1v0.5v0.5q7 24 10 30l-0.5 1t0.5 1l4 14q1 0 1 1q0 4 1 5l3 11l1 0.5l1 0.5q0 3 2 8l1 1
q2 2 2 4q0 3 10 10l1 1l1 1h1h1q2 2 4 3l1.5 -0.5t1.5 0.5l6 1q9 1 12 0q10 -3 11 -4q1 0 1 -1t1 -1q4 -2 5 -3q2 -2 6 -8q0 -1 1 -2l1 -1q1 -1 1 -2v-2q2 -3 5 -15q1 -1 1 -2.5t1 -3.5l0.5 -1.5l0.5 -1.5q0 -1 0.5 -2t0.5 -2t0.5 -1h0.5q1 -1 1 -4t1 -4l0.5 -0.5l0.5 -0.5
q2 -8 8.5 -27.5t8.5 -29.5q15 0 48.5 0.5t49.5 -0.5q10 0 12 -1l0.5 -0.5t1 -0.5t2 -1.5t2.5 -1.5t2 -1t1 -1.5t1 0l1 0.5q1 -1 2.5 -3t2.5 -4q8 -9 9 -19zM680 524q8 6 5 11q-1 3 -3.5 4t-6 1h-6.5t-7.5 -0.5t-7.5 -0.5h-13.5h-17.5h-16h-36q-12 1 -15 10q0 1 -0.5 2
t-0.5 2t-0.5 2l-0.5 1q0 1 -0.5 2.5l-0.5 1.5q-1 1 -1 2t-1 2q0 1 -0.5 2t-0.5 2l-0.5 1.5l-0.5 1.5q0 2 -0.5 3.5t-0.5 2.5q-1 4 -8 24t-10 31q0 1 -1 3.5t-1 3.5q0 2 -1 4.5t-2 3.5q0 1 -1 3.5t-1 3.5q-1 3 -5 4q-3 0 -4.5 -0.5t-3 -2.5t-2.5 -2v-1v-2q-3 -7 -5 -16
q0 -1 -1 -3.5t-1 -3.5t-1 -1h-1q0 -3 -1 -7.5t-2 -7.5q-1 -2 -2.5 -6.5l-2.5 -7.5q-2 -4 -4.5 -13.5t-4.5 -14.5q-7 -23 -11 -26t-12 -4h-5.5h-6.5q-51 -1 -69 0q-25 1 -27 0q-1 0 -5 -5q0 -4 2 -7q1 -1 5 -3q1 0 1.5 -1l0.5 -1q0 -1 1.5 -1t2 -0.5t0.5 -1.5t0.5 -1h1.5h1
l1 -1t2 -1q1 -2 3 -3t4 -2.5t2 -2.5q1 0 2 -1q3 -2 3.5 -2.5t0.5 -1t1 -0.5t5 -2l0.5 -1.5l0.5 -1.5l1.5 -0.5t2.5 -0.5l0.5 -1t0.5 -1.5t1 0t1.5 0t1 -1.5t1.5 -1q3 -2 10 -7l3 -3t3 -2q0 -1 1.5 -1t2 -0.5t1.5 -2t1.5 -2t1.5 -0.5h2q0 -1 0.5 -2l0.5 -1h1h1.5t1.5 -1l1 -1
q13 -11 13.5 -15.5t-2.5 -15.5q0 -1 -5 -15q-2 -5 -5 -15.5t-5 -14.5q-7 -22 -10 -32q0 -2 -1 -4t-1 -4q-1 -1 -1.5 -3.5t-1.5 -3.5q0 -1 -1 -1v0q-1 -3 1 -11q6 -3 12 1q1 1 3 2q1 1 3.5 3l2.5 2q1 1 5 3q1 0 1 1t1 1q0 1 1.5 1t1.5 1q1 0 1 1t0.5 1h1.5h1l1 1t2 1q4 4 6 5
q4 4 14 11t14 10l3 3t3 2q1 1 5 3l0.5 1t1.5 1q0 1 1.5 1t1.5 1l0.5 1t1 1h1.5h1l1 1t1 2q3 2 5 3t6.5 1.5t6.5 0.5q0 -1 1 -2l1 -1q1 0 2 -0.5t1.5 -1t1.5 -2t1.5 -1.5t2 -0.5l1.5 -0.5l0.5 -1t0.5 -1.5t1.5 0t1.5 -0.5q1 0 2 -1.5t1.5 -2t1.5 -0.5t1 -1q1 0 2.5 -2t2.5 -3
h2t2 -1l0.5 -1l0.5 -1h1t1.5 -0.5l1 -1l1.5 -1.5q5 -4 6 -5q1 0 2 -1t2 -1l1 -1t1 -2q1 0 3 -1.5t3 -1.5q5 -4 7 -5q22 -17 24 -19q8 -5 13 -2q4 3 1 13q-1 2 -2 6t-1.5 5.5t-1.5 4t-1 3.5q-1 1 -1.5 3.5t-1.5 3.5q0 1 -1 1v1q-1 2 -1.5 6t-0.5 6l-0.5 0.5t-1.5 0.5
q0 1 -0.5 2t-0.5 2t-0.5 2t-0.5 2l-0.5 1.5l-0.5 1.5q-1 1 -1 2.5t-1 1.5q0 1 -0.5 2t-0.5 2t-0.5 2l-0.5 1q0 1 -0.5 2.5l-0.5 1.5q-1 1 -1 2t-1 2q0 1 -0.5 2t-0.5 2l-0.5 1.5l-0.5 1.5q0 1 -0.5 2.5l-0.5 1.5v1v1q-6 20 -5 23q1 5 10 12q0 1 5 3l0.5 1l0.5 1l1.5 0.5
t2.5 0.5l0.5 1.5l0.5 1.5h1h1.5t1 1t1.5 1q4 4 6 5l10 8q1 0 5 2l0.5 1t0.5 2h2t2 1l0.5 1l0.5 1h1t1.5 0.5t1.5 1t1 1.5q5 4 6 5q1 0 2 1t2 1.5t2 1.5q2 2 3 2t1 0.5v0.5q1 1 5 3l0.5 1l0.5 1q1 0 2 0.5t2 0.5l0.5 1.5l0.5 1.5h1h1.5t1.5 1z" />
    <glyph glyph-name="meiyousoudaoxinxi" unicode="&#xe635;" horiz-adv-x="1179" 
d="M1104 896h-1030q-30 0 -52 -22t-22 -52v-709q0 -30 22 -52t52 -22h56q6 -16 19 -31q4 -3 9 -4q107 -28 122 -70q6 -18 -5 -33q-4 -6 -3.5 -13t6.5 -11.5t13.5 -4t11.5 6.5q23 29 11 65q-20 60 -142 93q-9 10 -9 19v1q0 11 13 20v0.5t1 0.5q3 2 7 4l2 2l12 4q14 3 35 3
q47 0 108 -18l21 -9q2 -2 6 -4q14 -8 26 -16l1 -0.5l1 -0.5q37 -27 63.5 -51t36.5 -39.5t17 -29t4.5 -18t-0.5 -7.5v0v0q-3 -6 -1 -13t9 -11q4 -2 8 -2q11 0 16 10q2 4 3.5 11t-0.5 22t-10 31.5t-29 41t-53 51.5h316q-32 -27 -53 -51.5t-29.5 -41t-10.5 -31.5t-0.5 -21.5
t4.5 -11.5q5 -10 16 -10q4 0 8 2q7 3 9 10t-1 14q-1 1 -1 2.5t1 9t4 15t11.5 20.5t21 27t34.5 32.5t50 38.5q13 9 28 17q4 3 5 3l22 11q61 18 108 18q20 0 35 -4q8 -3 11 -4q1 -1 2 -1q5 -3 8 -5l1 -1q12 -9 12 -20v-1q0 -9 -8 -19q-122 -33 -142 -93q-12 -36 10 -65
q5 -6 12.5 -6.5t13 4t6.5 12t-4 12.5q0 1 -2 4.5t-3.5 11.5t1.5 16q14 42 122 71q5 1 8 4q14 15 19 31q31 1 52 22.5t21 51.5v709q0 30 -22 52t-52 22v0zM190 554h158q22 -75 -8 -160l-2 -5q-9 -25 -13 -41.5t-0.5 -53t19.5 -80.5q26 -64 0 -102v0q-1 0 -2.5 0.5t-2.5 0.5
q-31 12 -61 16q-4 1 -6 1q-14 1 -26 1h-3h-3q-10 0 -20 -1q-1 0 -3 -0.5t-3 -0.5l-1.5 -0.5t-2.5 -0.5q15 68 -9 103q-16 25 -17 85t17 116q13 37 -11 122v0zM891 214q17 44 20 80.5t-0.5 53t-12.5 41.5l-2 5q-30 85 -8 159h158q-24 -84 -11 -121q18 -56 17 -116.5
t-18 -84.5q-23 -35 -9 -103l-4 1h-3q-10 2 -24 2h-1h-2q-49 0 -99 -20q-26 39 -1 103v0zM1142 113q0 -15 -10.5 -26.5t-26.5 -11.5q-4 10 -11 19l-2 2q-1 0 -1 0.5v0.5l-1 1q-3 3 -8 7q-1 1 -2 1.5t-2 1.5q-4 2 -8 5l-1.5 1l-1.5 1q-1 0 -1 1h-1q-20 67 -1 95
q22 34 23.5 104t-19.5 129q-9 29 16 110h6q8 0 13 5t5 12.5t-5 12.5t-13 5h-20h-196h-15q-7 0 -12.5 -5t-5.5 -12q0 -11 10 -16q-21 -83 11 -174l2 -5q8 -22 11 -36t0 -45t-17 -68q-30 -78 1 -132q-18 -9 -36 -21v0h-410q-1 0 -4 2q-13 9 -29 18q-1 0 -4 2q32 53 2 131
q-15 37 -18 68t0 45t11 36l2 5q32 91 11 174q10 5 10 16q0 7 -5 12.5t-13 5.5h-15h-196h-20q-7 0 -12 -5.5t-5 -13t5 -12.5t12 -5h7q25 -81 15 -110q-20 -58 -18.5 -129t23.5 -104q18 -28 -2 -95l-0.5 -0.5l-0.5 -0.5q-1 0 -2 -1t-2 -1q-4 -3 -7 -5q-1 0 -2 -1t-2 -1
q-5 -4 -8 -8l-2 -1l-1 -1l-1 -1q-2 -2 -6 -8v-1q-3 -6 -5 -11h-56q-16 0 -27.5 11.5t-11.5 27.5v708q0 16 11.5 27t27.5 11h1029q16 0 27 -11t11 -27v-709v0zM1142 113zM551 637q0 7 -5 12t-13 5q-60 0 -136 56q-10 7 -13 9q-7 4 -14 2t-11 -8.5t-2 -13.5t8 -11q4 -2 11 -7
q85 -62 157 -62q8 0 13 5t5 13v0zM551 637zM807 719q-4 -3 -13 -9q-76 -56 -137 -56q-7 0 -12 -5t-5 -12.5t5 -12.5t12 -5q73 0 158 62q9 6 10 7q7 4 8.5 11.5t-2 13.5t-11 8t-13.5 -2v0zM807 719zM716 234l-120 54q-7 3 -15 0l-106 -54q-7 -4 -9.5 -11t1 -13.5t10.5 -9
t14 1.5l99 50l112 -51q3 -1 7 -1q12 0 17 10q3 7 0 14t-10 10v0zM716 234z" />
    <glyph glyph-name="zazhimagazine1" unicode="&#xe75f;" 
d="M859 152v-202h-694v605l186 1l443 -404h65zM356 596l-75 -1v223h547v-627h-30zM585 670h187v95h-187v-95zM250 818h-50v-223h50v223z" />
    <glyph glyph-name="dizhi" unicode="&#xe617;" 
d="M512 811q-124 0 -211.5 -87.5t-87.5 -211.5q0 -63 31 -143t75 -149.5t87.5 -130.5t74.5 -96l31 -36q12 14 32 37.5t71.5 92.5t91 134t72 146.5t32.5 144.5q0 124 -87.5 211.5t-211.5 87.5zM512 405q-44 0 -75.5 31.5t-31.5 75.5t31.5 75.5t75.5 31.5t75.5 -31.5
t31.5 -75.5t-31.5 -75.5t-75.5 -31.5z" />
    <glyph glyph-name="zazhi" unicode="&#xe656;" 
d="M768 -32h-384q-120 0 -204 84t-84 204v128q0 14 9 23t23 9t23 -9t9 -23v-128q0 -91 66.5 -157.5t157.5 -66.5h384q38 0 67 29t29 67v512q0 38 -29 67t-67 29h-512q-38 0 -67 -29t-29 -67q0 -14 9 -23t23 -9h384q14 0 23 -9t9 -23t-9 -23t-23 -9h-384q-38 0 -67 29t-29 67
q0 67 46.5 113.5t113.5 46.5h512q67 0 113.5 -46.5t46.5 -113.5v-512q0 -67 -46.5 -113.5t-113.5 -46.5zM448 352h-128q-14 0 -23 9t-9 23t9 23t23 9h128q14 0 23 -9t9 -23t-9 -23t-23 -9zM704 160h-64q-14 0 -23 9t-9 23t9 23t23 9h64q14 0 23 -9t9 -23t-9 -23t-23 -9z" />
    <glyph glyph-name="news" unicode="&#xe708;" 
d="M662 419l297 246v-593zM68 696h889l-444 -366zM65 72v593l297 -246zM512 294l131 108l283 -330h-827l283 327z" />
    <glyph glyph-name="huodong1" unicode="&#xe612;" 
d="M783 359v323q0 15 -12.5 22.5t-26.5 0.5q-52 -26 -110 -26q-27 0 -50.5 5t-35.5 10t-33 16q-23 12 -37 18.5t-43.5 13t-63.5 6.5q-61 0 -110 -21l-7 -3l-3 7q-7 17 -25 17q-11 0 -19 -8t-8 -19v-669q0 -11 8 -19t19 -8t19 8t8 19v288l4 2q28 15 52.5 22t61.5 7
q28 0 51 -5t35 -10t33 -16q23 -12 37.5 -18.5t44 -13t62.5 -6.5q71 0 135 33q14 7 14 24zM730 375l-5 -2q-39 -17 -91 -17q-27 0 -50.5 5t-35.5 10t-33 16q-23 12 -37 18.5t-43.5 13t-63.5 6.5q-60 0 -108 -20l-10 -5v263l4 2q28 15 52.5 22t61.5 7q28 0 51 -5t35 -10
t33 -16q23 -12 37.5 -18.5t44 -13t62.5 -6.5q48 0 86 12l10 3v-265z" />
    <glyph glyph-name="gerentouxiang" unicode="&#xe63b;" 
d="M473 785q-14 0 -22.5 -4.5t-12.5 -5.5q-30 -4 -39 -5q-27 -5 -41 -31.5t-17 -48.5q-4 -40 -1 -104q2 -8 -0.5 -12.5t-5.5 -4.5l-4 -1q-11 1 -14 -17.5t-1 -38.5l2 -19q0 -2 1 -8t1.5 -8t2.5 -6.5t5.5 -7t9.5 -6t15 -6.5q8 -22 23.5 -41t27.5 -26l11 -8q2 -31 3 -54
l-0.5 -5.5t-4.5 -15t-12.5 -19.5t-30.5 -20t-54 -14q-27 -4 -50 -10.5t-36.5 -11.5t-27 -14t-18.5 -13t-14.5 -13.5t-10.5 -11.5q-20 -19 -20 -181h734q0 7 -0.5 17.5t-2.5 39.5t-4.5 52t-7.5 44.5t-11 27.5l-11.5 11.5t-14.5 14t-18.5 12.5t-28 14t-36.5 11.5t-50 10.5
q-23 3 -41 9t-27.5 13t-16 14.5t-8.5 14.5t-2.5 12.5t0 10l0.5 4.5l5 46q36 31 54 80q5 3 14 8.5t11.5 7.5t7 6t6.5 8t3 9q0 2 0.5 4.5t1 10.5t0 15t-1.5 15.5t-3 15t-6.5 10.5t-10.5 4q-1 0 -3 0.5t-4.5 4t-0.5 11.5q2 16 2 45.5t-2 46.5q0 2 -0.5 14.5t-1.5 21t-4.5 20
t-11.5 18.5t-19 9q-16 3 -28.5 1t-17.5 -2q-4 1 -22.5 19.5t-32.5 18.5l-54 -9v0z" />
    <glyph glyph-name="praise" unicode="&#xe657;" 
d="M845 508h-247q2 15 8.5 45t10 47.5t7.5 45t4 45t-2 39.5t-8.5 37t-18.5 28.5t-30 21.5q-16 7 -29.5 10.5t-24 4.5t-18.5 -3.5t-14 -8t-10.5 -15t-7.5 -19t-5.5 -24.5t-4 -27.5t-3.5 -31.5v-4q-4 -30 -22.5 -63.5t-42.5 -60t-48 -48.5t-39.5 -34.5t-16.5 -12.5v-494h534
q20 9 39.5 45t35.5 95.5t26 104t23.5 113t15.5 80.5q6 30 -3 49.5t-27 26.5t-36.5 9.5t-32.5 0.5l-13 -2v0zM64 480h157v-500h-157v500z" />
    <glyph glyph-name="huodong2" unicode="&#xe604;" 
d="M638 -64q-20 0 -38 9l-148 70l13 18q9 12 136 161q201 235 225 268l1 1q18 22 26.5 45t7 32t-0.5 12v1l-37 202l40 -41q9 -9 12 -21l73 -157h1q6 -16 6 -37.5t-6 -37.5l-1 -1l-233 -476q-11 -22 -31.5 -35t-45.5 -13zM508 29l108 -52q10 -5 22 -5q31 0 45 28l232 475
q9 24 0 47l-21 46l1 -9q1 -3 1.5 -8.5t-0.5 -18t-4.5 -25.5t-13 -31.5t-23.5 -35.5q-26 -34 -227 -269q-97 -114 -120 -142zM420 34q-32 0 -54 22l-267 223v0q-29 25 -30 63q-1 34 22 57l341 405l1 1q32 32 70 32v0l176 -3q48 0 88 -35q39 -33 51 -80v-1l33 -172
q4 -17 -2 -38.5t-18 -37.5v0l-345 -406q-26 -30 -66 -30zM123 306l267 -223l1 -1q12 -12 29 -12q23 0 39 18l344 405q8 10 11.5 23.5t1.5 22.5l-33 172q-10 37 -40 62t-64 25h-1l-175 3q-23 0 -44 -21l-342 -405v-1q-13 -12 -12 -31q1 -22 18 -37zM653 580v0q-30 0 -53 20
q-27 21 -30 53q-4 35 21 63q25 29 62 29q31 0 54 -20q26 -23 29 -57q2 -34 -20 -60q-25 -28 -63 -28zM653 709q-21 0 -35.5 -16.5t-12.5 -35.5q2 -18 17 -30h1q13 -12 30 -12q21 0 36 17q12 14 10.5 33.5t-15.5 32.5q-13 11 -31 11z" />
    <glyph glyph-name="yanzhengma" unicode="&#xe64a;" 
d="M512 832q-82 -63 -169 -95.5t-212 -32.5v-331q0 -59 34.5 -135t87.5 -143t123.5 -113t135.5 -46t135.5 46t123.5 113t87.5 143t34.5 135v331q-126 0 -212.5 32.5t-168.5 95.5zM769 489l-273 -273q-1 -1 -3 -1t-4 1l-176 176q-1 2 -1 4t1 3l56 56q4 4 7 0l117 -117
l213 214q4 3 7 0l56 -56q4 -3 0 -7z" />
    <glyph glyph-name="shangcheng" unicode="&#xe609;" 
d="M896 708q-16 5 -36 5q-52 1 -284 1h-289h-8q-11 -1 -19 -10.5t-6 -21.5l2 -6q4 -18 17.5 -67t20.5 -76q29 -106 32 -117q4 -16 20 -20v-1h3h6h1h65.5h77.5h121t18.5 6.5t9.5 16.5q2 14 -6.5 23.5t-23.5 9.5h-125.5h-118.5q-9 35 -28 104.5t-28 102.5h538q3 0 9.5 -0.5
t7.5 -0.5q6 0 5 -5q-3 -15 -3 -16q-7 -25 -34.5 -124t-41.5 -152q-3 -10 -17 -70q-6 -21 -31 -21h-438h-4q-24 1 -27 25q-2 11 -3 15q-26 93 -105 378q-29 106 -32 117q-3 10 -11.5 16t-18.5 5q-14 -2 -20.5 -13t-2.5 -25q111 -401 124 -446q12 -44 13 -54q5 -32 28 -53
t55 -21h446q30 0 52.5 19t28.5 48q1 2 1.5 7.5t1.5 8.5q8 28 37 134t45 164q9 35 12 55.5t-7.5 36.5t-29.5 22zM370 157q-35 2 -60.5 -21.5t-27.5 -58.5q-2 -34 21.5 -59.5t58.5 -26.5q33 -2 59 21t27 56q2 36 -21 61.5t-57 27.5zM365 46q-12 0 -20 8.5t-8 20t8.5 19.5t20 8
t19.5 -8.5t8 -20t-8.5 -19.5t-19.5 -8zM699 157q-35 1 -59 -23.5t-24 -59.5t24 -59t58.5 -24.5t59 24t24.5 59t-24 59t-59 24.5zM698.5 46q-11.5 0 -19.5 8t-8 19.5t8 20t19.5 8.5t20 -8.5t8.5 -20t-8.5 -19.5t-20 -8z" />
    <glyph glyph-name="version" unicode="&#xe60e;" 
d="M967 384q0 93 -36 177t-97 145t-145 97t-177 36t-177 -36t-145 -97t-97 -145t-36 -177t36 -177t97 -145t145 -97t177 -36t177 36t145 97t97 145t36 177zM577 175q-33 -35 -69 -54t-62.5 -16t-31.5 29q-3 18 5 65.5t20.5 104t15.5 75.5q1 9 -6 7l-14 -7v0l-7.5 -5
t-16.5 -9.5t-22.5 -10.5t-20.5 -3.5t-14 7.5q-2 3 6 10t14 11t15.5 10.5t35.5 23t48.5 28t46.5 18t37 1.5q15 -7 15.5 -32t-7 -49.5t-18 -51.5t-11.5 -30q-2 -7 -3.5 -17.5t-3.5 -28.5t1 -31t9 -22t21 -5t37 23l14 6q11 1 -34 -47zM542.5 521.5q-29.5 1.5 -49 23.5t-18 51.5
t23.5 49t51.5 18t49 -23.5t18 -51.5t-23.5 -49t-51.5 -18z" />
    <glyph glyph-name="tuisong" unicode="&#xe648;" 
d="M893 54h-762q-12 0 -19 7t-7 18v46q0 11 8 18l82 82v236q0 107 61.5 189t163.5 113v15q0 37 27 64.5t65 27.5t65 -27.5t27 -64.5v-13q102 -30 163.5 -113t61.5 -189v-235l82 -82q8 -8 8 -18v-46q0 -12 -7 -20t-19 -8zM156 105h714v8l-82 82q-7 7 -7 17v249
q0 94 -56.5 164.5t-148.5 93.5q-20 4 -20 26v33q-2 16 -14.5 28.5t-29.5 12.5t-29 -12.5t-12 -28.5v-30q0 -22 -20 -26q-93 -23 -149 -94t-56 -165v-248q0 -10 -8 -18l-82 -82v-10zM512 -77q36 0 63 26.5t27 63.5h-180q0 -37 27 -63.5t63 -26.5v0z" />
    <glyph glyph-name="icon1" unicode="&#xe647;" 
d="M805 52q-25 0 -42.5 -17.5t-17.5 -42t17.5 -42t42.5 -17.5t42.5 17.5t17.5 42t-17.5 42t-42.5 17.5zM422.5 52q-24.5 0 -42.5 -17.5t-18 -42t18 -42t42.5 -17.5t42 17.5t17.5 42t-17.5 42t-42 17.5zM283 251l-59 366q-8 44 -24.5 80t-36 58t-43 38.5t-42.5 24t-39 12
t-27 5t-11 0.5v-57q7 0 17 -1t35 -10.5t45.5 -26t40.5 -51t28 -81.5l59 -364q1 -20 9 -42.5t23.5 -45.5t44 -38t66.5 -15h560v58h-560q-22 0 -38.5 8.5t-25 19t-14 25.5t-7 22.5t-1.5 14.5zM943 642q-107 0 -569 58v0h-4.5t-10.5 1t-14.5 0t-17 -2.5t-17.5 -6.5t-15.5 -12
t-12 -18t-6 -26.5t2.5 -36.5l48 -297q1 -4 3 -10.5t11.5 -22.5t22 -28.5t35 -22.5t50.5 -10h399q25 0 47 11t35 27t22 32t13 27l4 11l50 235q1 2 1.5 5t2 12.5t0.5 18.5t-5.5 19.5t-12.5 18t-24 12.5t-38 5z" />
    <glyph glyph-name="pinglun" unicode="&#xe61b;" 
d="M803 102h-116l1 -1q-239 0 -453 -91l-36 -16v107v2v1q-58 7 -97 51t-39 103v359q0 65 45.5 110.5t109.5 45.5h585q65 0 110.5 -45.5t45.5 -110.5v-359q0 -65 -45.5 -110.5t-110.5 -45.5zM323 484q-24 0 -41 -16.5t-17 -40t17 -40.5t41 -17t41.5 17t17.5 40.5t-17.5 40
t-41.5 16.5v0zM525.5 484q-23.5 0 -40.5 -16.5t-17 -40t17 -40.5t40.5 -17t40.5 17t17 40.5t-17 40t-40.5 16.5zM727.5 484q-24.5 0 -41.5 -16.5t-17 -40t17 -40.5t41.5 -17t41.5 17t17 40.5t-17 40t-41.5 16.5z" />
    <glyph glyph-name="zidian" unicode="&#xe626;" 
d="M166 730v35q0 14 10 24t24 10h693q-9 15 -29.5 25t-39.5 10h-624q-28 0 -48.5 -20.5t-20.5 -48.5v-762q0 -28 20.5 -48.5t48.5 -20.5h35v762h-35q-14 0 -24 10t-10 24zM512 696h-242v-762h554q28 0 48.5 20.5t20.5 48.5v693h-381zM754 315h-346v34h346v-34v0zM754 419
h-346v34h346v-34v0zM754 522h-346v35h346v-35v0z" />
    <glyph glyph-name="lajiqingli" unicode="&#xe64d;" 
d="M157 568v0q0 6 -4 10.5t-11 4.5v0h740v0q-7 0 -11 -4.5t-4 -10.5v0v78q0 -6 4 -10.5t11 -4.5h-740v0q7 0 11 4.5t4 10.5v0v-78v0zM142 676h740q12 0 21 -8.5t9 -21.5v-78q0 -13 -9 -21.5t-21 -8.5h-740q-12 0 -21 8.5t-9 21.5v78q0 13 9 21.5t21 8.5v0zM369 661
q0 6 -4.5 10t-10.5 4h316q-6 0 -10.5 -4t-4.5 -10v93q0 -6 4.5 -10.5t10.5 -4.5h-316q6 0 10.5 4.5t4.5 10.5v-93zM354 784h316h1q12 0 21 -9t9 -21v0v-93q0 -13 -9 -22t-22 -9h-316h-1q-12 0 -21 9t-9 21v1v93q0 12 9 21t22 9v0zM263 15q0 6 -4.5 10t-10.5 4v0h528v0v0
q-6 0 -10.5 -4t-4.5 -10v554q0 -13 9 -21.5t21 -8.5h-558q12 0 21 9t9 21v0v-554v0zM233 584h558q6 0 10.5 -4.5t4.5 -10.5v-554v-1q0 -12 -8.5 -21t-21.5 -9h-528q-13 0 -21.5 9t-8.5 21v1v554q0 6 4 10.5t11 4.5v0zM338 438q0 10 7 16.5t16 6.5t16 -6.5t7 -16.5v-308
q0 -10 -7 -16.5t-16 -6.5t-16 6.5t-7 16.5v308zM489 438q0 10 7 16.5t16 6.5t16 -6.5t7 -16.5v-308q0 -10 -7 -16.5t-16 -6.5t-16 6.5t-7 16.5v308zM640 438q0 10 7 16.5t16 6.5t16 -6.5t7 -16.5v-308q0 -10 -7 -16.5t-16 -6.5t-16 6.5t-7 16.5v308z" />
    <glyph glyph-name="empty" unicode="&#xe605;" horiz-adv-x="1237" 
d="M1116 385l121 47l-85 127l76 -13l7 12l-143 97l-426 158l-504 -167l-162 -115l8 -13l88 37l-64 -90l128 -72v-286l407 -226l548 226zM1197 567l-56 9l-35 51zM673 794l398 -148l-398 -149v297zM1083 636l132 -197l-549 -213l-91 219zM58 554l78 55l-24 -32zM53 469
l114 159l389 -183l-69 -219zM174 116v269l322 -180l62 199l2 -503zM182 637l477 158v-303l-94 -35zM1102 117l-528 -217l-1 513l85 -206l444 172v-262z" />
    <glyph glyph-name="shouye_shouye" unicode="&#xe602;" 
d="M884 426l-362 339l-362 -338q-5 -5 -5.5 -12t4.5 -12.5t12.5 -6t12.5 4.5l338 316l338 -317q5 -4 12 -4v0v0q8 0 13 5q5 6 4.5 13t-5.5 12zM773.5 419q-7.5 0 -12.5 -5t-5 -12v-270h-140v188h-188v-188h-140v270q0 7 -5 12t-12.5 5t-12.5 -5t-5 -12v-305h210v188h117
v-188h211v305q0 7 -5 12t-12.5 5zM651 671h105v-94q0 -7 5 -12t12.5 -5t12.5 5t5 12v129h-140q-8 0 -13 -5t-5 -12.5t5 -12.5t13 -5zM277 125h161v180h157v-180h175v278h97l-345 327l-357 -322l110 -5z" />
    <glyph glyph-name="dianzizazhi" unicode="&#xe694;" 
d="M512 868q-99 0 -188.5 -38t-154.5 -103t-103 -154.5t-38 -188.5t38 -188.5t103 -154.5t154.5 -103t188.5 -38t188.5 38t154.5 103t103 154.5t38 188.5t-38 188.5t-103 154.5t-154.5 103t-188.5 38zM825 71q-61 -61 -141 -95q-82 -35 -172 -35t-172 35q-80 34 -141 95
t-95 141q-35 82 -35 172t35 172q34 80 95 141t141 95q82 35 172 35t172 -35q80 -34 141 -95t95 -141q35 -82 35 -172t-35 -172q-34 -80 -95 -141zM443 432h146q8 0 14 6t6 15t-6 15t-14 6h-146q-9 0 -15 -6t-6 -15t6 -15t15 -6zM589 322q8 0 14 6t6 14.5t-6 14.5t-14 6h-146
q-9 0 -15 -6t-6 -14.5t6 -14.5t15 -6h146zM373.5 585q-8.5 0 -14.5 -6.5t-6 -14.5v-374q0 -8 6 -14.5t14.5 -6.5t14.5 6.5t6 14.5v374q0 8 -6 14.5t-14.5 6.5zM686 578h-243q-6 0 -10 -4t-4 -10t4 -10t10 -4h229v-291q0 -3 -0.5 -8t-4.5 -16.5t-10 -20t-20 -15.5t-32 -7
h-162q-6 0 -10 -4t-4 -9.5t4 -9.5t10 -4h162q59 0 83 48q11 23 11 46v305q0 6 -4 10t-9 4z" />
    <glyph glyph-name="xiaoxi" unicode="&#xe68e;" horiz-adv-x="1032" 
d="M516 4h-84l-233 -127v232q-89 63 -139.5 149.5t-50.5 188.5q0 91 40 173t108 141.5t162 94.5t197 35t197 -35t162 -94.5t108 -141.5t40 -172.5t-40 -172.5t-108 -141.5t-162 -94.5t-197 -35zM516 828q-120 0 -222.5 -51t-162 -138.5t-59.5 -191.5q0 -95 52 -179.5
t139 -136.5v-141l169 77h84q120 0 222.5 51t162 138.5t59.5 191t-59.5 191t-162 138.5t-222.5 51zM769.5 384q-26.5 0 -45 18.5t-18.5 45t18.5 45t45 18.5t45 -18.5t18.5 -45t-18.5 -45t-45 -18.5zM516 384q-26 0 -44.5 18.5t-18.5 45t18.5 45t44.5 18.5t44.5 -18.5
t18.5 -45t-18.5 -45t-44.5 -18.5zM262.5 384q-26.5 0 -45 18.5t-18.5 45t18.5 45t45 18.5t45 -18.5t18.5 -45t-18.5 -45t-45 -18.5z" />
    <glyph glyph-name="meiyoushuju" unicode="&#xe637;" 
d="M898 896h-777v0q-24 0 -40.5 -16.5t-16.5 -39.5v-535q0 -24 16.5 -40.5t40.5 -16.5h42q4 -13 14 -23q3 -3 6 -3q81 -21 93 -53q4 -14 4 -25q-1 -1 -1 -271h30v270q-1 9 -2.5 17.5t-2.5 12.5l-2 4q-20 46 -108 70q-6 7 -6 15v0q0 8 9 15l1 1q3 2 7 4q1 1 9 3q11 3 26 3
q36 0 82 -14q11 -5 15 -7q13 -7 25 -15l1 -1q29 -20 49 -38.5t27.5 -30t12.5 -21.5t3.5 -13.5t-0.5 -5.5v0q-2 -3 -2 -6q0 -6 4 -10t10 -4v0q8 0 12 7q2 4 3 9t-0.5 16.5t-7.5 24t-22 31t-40 38.5h238q-24 -20 -40 -38.5t-22 -31t-7.5 -24t-0.5 -16.5t3 -8q4 -8 12 -8
q4 0 6 2q8 3 8 11q0 4 -2 7v0q2 1 0 4.5t3 14t12.5 22t27.5 30t49 38.5q19 14 41 23q47 14 82 14q16 0 26 -3q7 -2 9 -3l1 -1q4 -2 7 -3v-1q9 -7 9 -15h1q-1 -9 -7 -15q-92 -25 -107 -70q-4 -13 -6 -37q4 -9 4 -267h26l-2 271l3 24q11 32 93 54q3 1 6 3q10 10 14 23
q23 1 39 17.5t16 39.5v0v535q0 23 -16.5 39.5t-39.5 16.5v0zM207 637h120q17 -56 -6 -120l-2 -4q-6 -19 -9 -31.5t-0.5 -40t14.5 -60.5q19 -49 0 -78v0l-4 2q-22 8 -46 11q-3 1 -4 1q-10 1 -20 1h-4q-8 0 -16 -1l-4 -1h-1h-2q11 51 -7 77q-12 19 -13 64.5t13 88.5
q10 27 -9 91v0zM738 381q12 33 14.5 60.5t0 40t-9.5 31.5l-2 4q-22 64 -6 120h120q-19 -64 -9 -91q14 -43 13 -88.5t-13 -64.5q-18 -26 -7 -77h-3l-3 1q-9 1 -17 1h-3q-39 0 -75 -15q-19 29 0 78v0zM927 305q0 -12 -8 -20.5t-20 -9.5q-3 9 -8 15l-2 2l-1 1q-3 3 -7 5l-2 2
l-6 4l-3 2h-1v0q-15 51 -1 72q17 26 18 79t-14 98q-8 21 11 82h5q6 0 10 4t4 9.5t-4 9.5t-10 4h-175q-3 2 -6 2q-5 0 -9 -4t-4 -9.5t4 -9.5t9 -4q-15 -63 9 -131l1 -4q6 -17 8.5 -27.5t0 -34t-13.5 -51.5q-22 -59 1 -99q-13 -7 -27 -17h-310l-3 2q-12 8 -24 15q23 40 1 99
q-11 28 -13.5 51.5t0 34t8.5 27.5l1 4q24 68 9 131q7 4 7 12q0 6 -4 9.5t-9 3.5h-175q-5 0 -9 -4t-4 -9.5t4 -9.5t9 -4h5q19 -61 12 -82q-16 -44 -15 -97.5t18 -78.5q14 -22 -1 -73h-0.5h-0.5l-3 -2q-3 -2 -6 -3l-2 -2q-4 -3 -7 -6l-1 -1l-0.5 -0.5t-0.5 -1.5q-2 -1 -5 -5
v-1q-2 -4 -4 -9h-42v0q-12 0 -21 9t-9 21v535q0 12 9 20.5t21 8.5h777q12 0 20.5 -8.5t8.5 -20.5v-535v0zM481 700q0 6 -4 9.5t-10 3.5q-45 0 -103 42q-5 4 -10 7q-3 2 -6 2q-6 0 -9.5 -4t-3.5 -10q0 -7 5 -11q3 -2 8 -6q65 -47 119 -47q6 0 10 4t4 10zM674 762
q-2 -1 -10 -7q-57 -41 -103 -41q-6 0 -10 -4t-4 -10t4 -9.5t10 -3.5q54 0 119 47q7 5 8 5q6 4 6 12q0 5 -3.5 9t-9.5 4q-4 0 -7 -2zM606 396l-91 40q-3 2 -6 2t-6 -2l-80 -41q-8 -3 -8 -12q0 -3 2 -6q4 -7 12 -7q3 0 6 1l75 38l85 -38q2 -1 5 -1q9 0 12 8q2 2 2 5q0 9 -8 13
v0z" />
    <glyph glyph-name="meiyoujieguo" unicode="&#xe60a;" horiz-adv-x="1206" 
d="M1174 82q-13 0 -22 9.5t-9 22.5t9 22t22 9t22.5 -9t9.5 -22t-9.5 -22.5t-22.5 -9.5zM1174.5 131q-7.5 0 -12.5 -5t-5 -12t5 -12t12.5 -5t12.5 5t5 12t-5 12t-12.5 5zM31 569q-13 0 -22 9t-9 22t9 22.5t22 9.5t22.5 -9.5t9.5 -22.5t-9 -22t-23 -9zM31 618q-7 0 -12 -5
t-5 -12.5t5 -12.5t12.5 -5t12.5 5t5 12.5t-5 12.5t-13 5zM1097 -78h-75q-9 0 -9 9v6q0 9 9 9h75q9 0 9 -9v-6q0 -9 -9 -9zM1063 -112h-7q-9 0 -9 9v75q0 8 9 8h7q9 0 9 -8v-75q0 -9 -9 -9zM203 843h-66q-9 0 -9 9v5q0 9 9 9h66q9 0 9 -9v-5q0 -9 -9 -9zM173 813h-5
q-9 0 -9 9v65q0 9 9 9h5q8 0 8 -9v-65q0 -9 -8 -9zM992 33l-521 -159q-18 -6 -35 3t-22 28l-210 686q-5 18 4 35t27 23l521 159q18 5 35 -4t23 -27l209 -686q5 -19 -3.5 -35.5t-27.5 -22.5zM937 44l-521 -159q-19 -6 -35.5 3t-22.5 27l-209 687q-6 18 3 35t27 22l521 160
q19 5 36 -4t22 -27l210 -687q5 -18 -4 -35t-27 -22zM403 -128q-19 0 -34 11t-21 30l-209 686q-7 22 4 43t34 28l521 159q21 7 43 -4q21 -12 27 -34l210 -686q7 -23 -4.5 -43.5t-33.5 -27.5l-521 -159q-8 -3 -16 -3zM714 810q-6 0 -11 -1l-521 -160q-14 -4 -21 -17
q-6 -13 -2 -27l209 -686q4 -14 17.5 -21t27.5 -3l521 159q14 5 21 17q7 13 2 28l-209 686q-5 14 -18 21q-7 4 -16 4zM937 44zM256 553q-8 0 -10 7q-3 10 7 13l267 81q11 4 13 -7q3 -10 -7 -13l-267 -81h-1h-2zM300 408q-8 0 -10 8q-3 10 7 13l267 81q10 3 13 -7
q3 -11 -7 -13l-267 -81l-1 -0.5t-2 -0.5zM478 526q-1 0 -1 1l-62 12q-8 2 -7 10l1 5q1 3 4 6q3 2 7 1l61 -12q3 -1 6 -4q2 -3 1 -7l-1 -5q0 -3 -4 -5q-2 -2 -5 -2zM444 504h-1l-5 1q-8 2 -7 10l12 62q1 3 4 5t7 2l4 -1q4 -1 6 -4t2 -7l-13 -61q-2 -7 -9 -7zM919 -5l-544 -6
q-19 -1 -33 12.5t-14 32.5l-8 736q0 19 13 32.5t32 14.5l545 6q19 0 33 -13.5t14 -32.5l8 -736q0 -19 -13 -32.5t-33 -13.5zM374 -22q-23 0 -39 16q-17 17 -17 40l-8 736q0 24 16 40.5t40 16.5l545 6q23 0 40 -16t17 -40l8 -736q0 -23 -16.5 -40t-39.5 -17l-545 -6h-1z
M911 812h-1l-545 -6q-14 0 -25 -10q-10 -11 -10 -26l8 -735q0 -15 11 -26q10 -10 25 -10l545 6q14 0 25 11q10 10 10 25l-8 736q0 14 -11 25q-9 10 -24 10zM396 648q-4 0 -7 3t-3 8q0 10 10 10l279 3q4 0 7.5 -3t3.5 -7q0 -11 -11 -11l-279 -3q1 0 0 0zM401 530
q-10 0 -10.5 10.5t10.5 10.5l183 6q10 1 11 -10q0 -4 -3 -7.5t-8 -3.5zM405 413q-10 0 -10 11q0 10 10 11l94 3q11 0 11 -11q0 -10 -10 -11zM355 245l1 -204q-1 -18 11.5 -31t30.5 -13h1l508 11q18 1 31 14t13 31l-2 455zM660 88q22 -13 56.5 -22t60.5 -9q97 0 166 68.5
t69 165.5q0 57 -34.5 116.5t-83.5 87.5q-23 13 -57 22t-60 9q-97 0 -166 -68.5t-69 -166.5q0 -56 34.5 -115.5t83.5 -87.5zM776 46q-65 0 -121 32q-88 51 -115 149t24 187q50 88 148.5 114.5t186.5 -24t115 -149t-24 -186.5q-33 -58 -91 -90.5t-123 -32.5zM777 516
q-59 0 -111.5 -30t-83.5 -83q-46 -81 -22 -170.5t105 -135.5q52 -30 112 -30q59 0 111.5 30t83.5 83q46 80 21.5 170t-104.5 136q-53 30 -112 30zM573 409zM870 59l29 -105q1 -6 -2 -11t-9 -7l-20 -5q-5 -2 -10.5 1t-7.5 9l-28 105q-1 5 2 10.5t8 7.5l20 5q6 2 11.5 -1
t6.5 -9zM669 146q19 -10 46.5 -17.5t49.5 -7.5q79 0 135 56t56 135q0 46 -28 94.5t-68 71.5q-19 11 -46.5 18.5t-48.5 7.5q-80 0 -136 -56t-56 -136q0 -46 28 -94.5t68 -71.5zM818 382h-3l-139 32q-11 3 -8.5 13t13.5 8l139 -32q11 -3 8 -13q-2 -8 -10 -8zM846 288h-3
l-194 45q-10 2 -7.5 12.5t12.5 7.5l194 -45q11 -2 8 -12q-2 -8 -10 -8zM809 218h-2l-174 41q-11 2 -8.5 12.5t12.5 7.5l175 -40q10 -3 8 -13q-2 -8 -11 -8zM705 666h-209q-18 0 -30 12.5t-12 30.5v137q0 18 12 30.5t30 12.5h555q17 0 29.5 -12.5t12.5 -30.5v-137
q0 -18 -12.5 -30.5t-29.5 -12.5h-278h-68zM1051 659h-278q-7 0 -7 7q0 3 2 5t5 2h278q14 0 24.5 10.5t10.5 25.5v137q0 15 -10.5 25.5t-24.5 10.5h-555q-15 0 -25 -10.5t-10 -25.5v-137q0 -15 10 -25.5t25 -10.5h209q7 0 7 -7t-7 -7h-209q-20 0 -35 14.5t-15 35.5v137
q0 21 15 35.5t35 14.5h555q20 0 34.5 -14.5t14.5 -35.5v-137q0 -21 -14.5 -35.5t-34.5 -14.5zM515 789q0 2 1 3t3 1h1q1 -1 4 -1l5 -2l5 -2q3 -1 4 -1t4 -2q1 -1 1 -3t-1.5 -3t-3.5 -1h-1l-19 7q-2 0 -2 1q-1 1 -1 3zM516 766q0 2 2 3q0 1 3 1v0h1h2l4 -1l4 -1l3 -1
q2 -1 3 -2q1 0 1 -2.5t-1.5 -3.5t-2.5 -1h-2h-0.5h-1.5l-3 1l-4 1l-3 1q-2 0 -3 2q-2 1 -2 3zM516 737q0 1 2 2q0 1 0.5 1.5t0.5 1.5q2 1 2 2q1 0 1.5 0.5t1 0.5t1 0.5l0.5 0.5l4 2l3 3q2 1 3 2l2 1h1q2 0 3 -1t1 -3t-1 -3q-1 -2 -3 -3l-1.5 -1t-1.5 -2l-3 -1l-2 -2l-1 -1
l-2 -2l-2 -2h-3q-2 0 -3 1q-3 0 -3 3zM596 794q0 7 1 13.5t1 13.5v0v0l-1 1h-3h-4l-5 1h-2h-1h-16h-2l-2 -1q-1 0 -1 -1v0q0 -3 -0.5 -8.5t-0.5 -8.5q0 -5 -2 -17q0 -1 -1 -2t-3 -1t-4 1q-1 1 -1 3v1v1v1v1v2q1 0 1 3v1v5.5v8.5q1 3 1 8v3v2v1h1l1 1l2 2l2 2l1 1h9h25h4h3h3
t3 -1l2 -2t1 -3v-8q0 -2 -0.5 -4.5t-0.5 -4t-0.5 -4t-0.5 -3.5q-1 -6 0 -9v-3q0 -1 1 -1q0 -1 1 -1h2h15q2 0 2 -2q1 0 1 -2t-1.5 -3t-3.5 -1q-2 -1 -5 -1h-4q-3 0 -5 1q-3 0 -5 1q-4 1 -5 3q-2 2 -2 4zM583 734q-1 0 -4 -2l-4 -3q-2 -1 -5 -2q-3 -2 -5 -2q-4 0 -4 4
q0 3 1 4q1 0 1.5 0.5l0.5 0.5l3 1l3 2l0.5 0.5l0.5 0.5l2 1q1 0 1 1v1q-6 5 -9 10q-6 7 -8 10q0 1 -0.5 1.5l-0.5 0.5l-0.5 0.5t-0.5 1.5q0 3 3 4q2 2 5 2l4 1l5 1h6h2.5h1.5h17h3t4 -1q2 -1 3 -2q1 -2 1 -3v-2q-3 -6 -8 -13q-5 -6 -9 -10v-2l3 -1l2 -1l4 -2q1 0 2 -0.5
t2 -1.5l2 -1q4 -1 4 -4q0 -2 -1 -4q-2 -1 -3 -1v0q-7 2 -12 4q-7 3 -12 5zM567 762q1 -2 3 -4q2 -3 4 -5q3 -3 5 -4q2 -2 4 -2h1h0.5h0.5l2 3l3 3l3 3l2 2q1 1 2 3q2 1 2 3h-27q-1 0 -2.5 -0.5t-2.5 -0.5v-1zM723 722q0 2 1.5 3t2.5 3q0 1 0.5 3.5t0.5 3.5q1 5 1 7t-1 2h-1
h-2h-7q-3 -1 -9 -1q-3 0 -7 -1h-3l-2 -1v-1q0 -3 0.5 -4.5t0.5 -4.5q0 -5 -5 -5q-3 0 -4 1q-1 2 -1 4v4v4l-1 7.5t-1 11.5v12q-1 3 -1 7v1q-2 -1 -3 -3l-0.5 -1l-0.5 -1q-1 -2 -2 -3q-2 -1 -3.5 -1t-2.5 1t-1 3v1v2l18 32v1h-2h-3h-3q-1 0 -2 0.5l-1 0.5q-2 0 -2 1
q-1 2 -1 3t1 2q1 2 3 2h14h1q0 1 2 3l1 2q0 1 1 2v1q1 2 2 3l1 3q1 1 1 2q1 1 2 3t4 2q1 0 3 -1q1 -1 1 -3q0 -1 -0.5 -1.5t-0.5 -1t-0.5 -1.5l-0.5 -1q-1 -1 -2 -4l-2 -4q-1 -2 -2 -3h1h29q2 0 2 -2l1 -2q0 -2 -1 -3t-2 -1l-35 -2l-2 -2l-6 -12v-2l1 -1l40 -1h2q1 -1 1 -2
v-1.5t1 -0.5v-2v-6v-32v-3v-1.5t-0.5 -2t-0.5 -2v-2v-1t-0.5 -1t-0.5 -1v-1v-1.5t-1 -2v-4q-1 0 -1 -2t-1 -4q-2 -2 -4 -2t-5 1v1.5v2.5zM695 768q0 -1 1 -1h1q5 0 15.5 0.5t15.5 0.5q1 0 1 1v3v3v3v2v2v0l-2 1h-2h-2h-26h-2v-9v-6zM695 756v-3l0.5 -0.5l0.5 -0.5h4h6h8
q1 1 4 1h4h6q1 0 1 1q1 1 1 3v1q0 1 -1 1h-3q-1 0 -2 0.5l-1 0.5h-1q-3 0 -5 -1h-4h-4q-2 -1 -7 -1h-3.5h-1.5q-1 0 -1 -1zM795 754v0.5v1.5h1l12 24v0q-3 0 -7 -1q-3 -1 -6 -1h-4l-2 2q-1 2 -1 3v1v1l1 1l8 17q4 9 8 17q1 1 3 2q1 1 2.5 1t3 -1t1.5 -3v0v-1v-0.5v-0.5
l-14 -27v-1h3l3 1h2h3l1 1h1q1 1 1 2l1 3l2 2h3t3 -1q1 -1 1 -3v-1v-0.5v-1.5q-1 -1 -1 -1.5t-0.5 -1t-0.5 -1.5l-1 -1v-1v0q0 -1 -1 -2t-1 -2q-1 -1 -2 -3t-2 -3q-1 -2 -3 -7q-2 -3 -2 -4v-0.5t-1 -0.5v-1q0 -1 1 -1h1l12 3h2q2 0 3 -1q2 -1 2 -3t-2 -3t-3 -2l-24 -7h-1
q-2 0 -4 2t-2 4zM794 732q0 2 1 3l0.5 0.5t0.5 1.5h1t1 1h3l1.5 0.5l1.5 0.5l6 2l5 2q1 0 2 0.5t2 0.5h2q1 0 3 -1q1 -2 1 -3q0 -4 -4 -5l-22 -7h-1q-2 0 -3 1q-2 1 -1 3zM837 783q0 2 1 3q1 2 3 2h1.5h0.5h3l3 1h3h3h4l1 1l1 1q0 4 1 7v6v1v2q0 1 -1 1h-1q-3 0 -9 -1t-9 0
q-2 0 -4 1q-1 1 -1 3t1 4q3 1 5 1.5t6 0.5h6h2.5h2.5q1 1 1 2v15q0 1 1.5 2t3.5 1q3 0 4 -3v-11v-3t2 -1q4 0 6 0.5t6 0.5h6q1 0 2 -1.5t1 -2.5q0 -2 -2 -3q-1 -2 -2 -2l-17 -1l-1 -1v-5q-1 -1 -1 -4v-8h7q1 0 3 0.5t4 0.5t3.5 -1t1.5 -4t-3 -3q-2 -1 -3 -1h-3l-6 -1
q-7 -1 -10 -1l-10 -1h-6l-3 -1h-2h-1q-2 0 -4 1zM840 736q0 10 0.5 14.5t0.5 14.5l1 3q1 2 3 3q6 -1 10 0h33q3 0 4 -1.5t1 -4.5v-6v-7v-25q0 -2 -2 -3q0 -1 -1 -1h-6q-5 -1 -14 -1.5t-14 -0.5h-8q-3 0 -4 2q-2 1 -2 4q-1 2 -1 5q-1 1 -1 4zM850 754v-7v-7v-9v-1h4h3h5h4h7
h3l2 1h2h2l1 1v0v0v29v1h-18h-7q-1 0 -3 -0.5l-2 -0.5h-2q0 -1 -1 -2v-5zM970.5 755q-0.5 0 -1.5 -1v0v-1l-2 -3q-1 -1 -3 -5l-3 -5l-0.5 -1.5t-1.5 -1.5q0 -1 -1 -1q0 -1 -0.5 -1.5l-0.5 -0.5l-2 -3v-0.5t-0.5 -1l-1 -1l-0.5 -0.5q-1 -1 -3 -1t-3 1t-1 3q0 3 2 6q2 1 4 5
l2 3q1 3 1 4q1 1 1.5 2l0.5 1l1 2v0h-7q-1 0 -2 2q-1 1 -1 2q0 4 4 5q3 1 8 1h8q3 0 3 1v16v1h-1q-5 0 -7.5 -0.5t-7.5 -0.5h-3q-3 1 -4 3q-1 1 -2 4q-1 2 -2 5v4l-1 5t-1 9v5t-1 4v6v0v1q0 2 1.5 4t4.5 2h5l4 1h13h22h5q1 0 3 -0.5t3 -0.5q2 -1 5 -2q2 -2 2 -4v-10l-4 -30
q0 -1 -0.5 -2t-0.5 -2q-1 -2 -3 -2h-2q-1 0 -1.5 0.5l-0.5 0.5h-11q-2 0 -4 -1h-1v0v-16l1 -1h2q5 0 7 1h7q1 0 3 -1q2 0 2 -3t-1 -4t-4 -1h-3q-1 -1 -2.5 -1h-1.5q-2 -1 -5 -1h-4l-1 -1v-30q0 -2 -1 -3t-3 -1t-3 1q-1 2 -1 3l-1 29q-1 3 -1.5 3zM950 822q0 -2 1 -3v-1v-1.5
v-1.5v-1v-1h1h13h4v1v11v1h-12h-3t-3 -1q-1 0 -1 -2v-1zM952 802v-2q0 -1 0.5 -2l0.5 -1v-3l1 -2v0v0h9h2h2h2l2 1v9v1l-0.5 0.5l-0.5 0.5h-13h-1.5h-2.5zM980 822v-3v-2v-1v-1v-2h18q0 1 0.5 2t0.5 3v1v2l1 2q0 1 -1 2h-1l-8 1q-1 0 -3 0.5t-4 0.5h-2l-1 -1q-1 -1 -1 -2z
M995 793q1 0 1 2q1 1 1 3v2v2v2h-15v0l-1 -1v-10h14zM988 744v2.5t1 2.5t3 1h2t1 -1h1q1 -1 1 -2l2 -2l2 -2l2 -1q1 -2 2 -2.5t2 -1.5t1.5 -2t1.5 -1q1 -2 1 -3q0 -2 -2 -3q-1 -1 -3 -1q-3 0 -5 2l-4 4l-1 1l-1 1l-2 3l-3 2zM705 663l32 -44l33 44h-65zM736.5 608
q-5.5 0 -8.5 5l-31 43q-7 8 2 15q8 6 15 -2l23 -32l25 32q6 9 14 2q9 -7 2 -15l-33 -43q-3 -5 -8.5 -5z" />
    <glyph glyph-name="meiyoujieguo1" unicode="&#xe6e7;" 
d="M513 -94q-97 0 -186 38t-153 102t-102 153t-38 186t38 185.5t102 153t153 102t186 37.5t185.5 -37.5t153 -102t102 -153t37.5 -185.5t-37.5 -186t-102 -153t-153 -102t-185.5 -38zM512.5 811q-115.5 0 -213.5 -57t-155.5 -155.5t-57.5 -214t57.5 -213.5t155.5 -155.5
t213.5 -57.5t214 57.5t155.5 155.5t57 213.5t-57 214t-155.5 155.5t-214 57zM354 405v0q-9 0 -16 6l-107 108q-7 6 -7 15t6.5 15.5t16 6.5t15.5 -6l107 -107q7 -7 7 -16t-6.5 -15.5t-15.5 -6.5v0zM246 405v0q-9 0 -15.5 6.5t-6.5 15.5t7 16l107 107q7 6 15 6q9 0 15.5 -6.5
t6.5 -15.5t-6 -15l-107 -108q-6 -6 -16 -6v0zM779 405v0q-9 0 -16 6l-107 108q-6 6 -6 15t6.5 15.5t15.5 6.5t15 -6l108 -107q6 -7 6 -16t-6.5 -15.5t-15.5 -6.5v0zM672 405v0q-9 0 -15.5 6.5t-6.5 15.5t6 16l107 107q7 6 16 6t15.5 -6.5t6.5 -15.5t-6 -15l-108 -108
q-6 -6 -15 -6v0zM354 149v0q-9 0 -16 6l-40 38q-6 6 -6 16q0 9 6.5 15.5t15.5 6.5t15 -6l25 -24l64 62q6 6 15 6t15 -6l65 -62l64 62q6 6 15 6t16 -6l64 -62l25 24q6 6 15 6t15.5 -6.5t6.5 -15.5q0 -10 -7 -16l-40 -38q-6 -6 -15 -6t-15 6l-65 61l-64 -61q-6 -6 -15 -6
t-16 6l-64 61l-64 -61q-7 -6 -15 -6v0z" />
  </font>
</defs>
</svg>
